<svg xmlns="http://www.w3.org/2000/svg" xmlns:xlink="http://www.w3.org/1999/xlink" width="30" height="30" viewBox="0 0 30 30">
  <defs>
    <clipPath id="clip-path">
      <rect id="Rectangle_2450" data-name="Rectangle 2450" width="30" height="30" transform="translate(664 1905)" fill="#212121"/>
    </clipPath>
  </defs>
  <g id="Mask_Group_54" data-name="Mask Group 54" transform="translate(-664 -1905)" clip-path="url(#clip-path)">
    <path id="Path_10231" data-name="Path 10231" d="M-1.461-9.711A1.989,1.989,0,0,1,0-10.312a1.989,1.989,0,0,1,1.461.6,1.989,1.989,0,0,1,.6,1.461,1.989,1.989,0,0,1-.6,1.461A1.989,1.989,0,0,1,0-6.187a1.989,1.989,0,0,1-1.461-.6,1.989,1.989,0,0,1-.6-1.461A1.989,1.989,0,0,1-1.461-9.711Zm0-3.609a1.989,1.989,0,0,1-.6-1.461,1.989,1.989,0,0,1,.6-1.461A1.989,1.989,0,0,1,0-16.844a1.989,1.989,0,0,1,1.461.6,1.989,1.989,0,0,1,.6,1.461,1.989,1.989,0,0,1-.6,1.461,1.989,1.989,0,0,1-1.461.6A1.989,1.989,0,0,1-1.461-13.32Zm0,13.063a1.989,1.989,0,0,1-.6-1.461,1.989,1.989,0,0,1,.6-1.461A1.989,1.989,0,0,1,0-3.781a1.989,1.989,0,0,1,1.461.6,1.989,1.989,0,0,1,.6,1.461,1.989,1.989,0,0,1-.6,1.461A1.989,1.989,0,0,1,0,.344,1.989,1.989,0,0,1-1.461-.258Z" transform="translate(679 1928)" fill="#212121"/>
  </g>
</svg>
