<svg xmlns="http://www.w3.org/2000/svg" xmlns:xlink="http://www.w3.org/1999/xlink" width="40" height="40" viewBox="0 0 40 40">
  <defs>
    <clipPath id="clip-path">
      <rect id="Rectangle_2948" data-name="Rectangle 2948" width="40" height="40" transform="translate(664 1905)" fill="#9e9e9e"/>
    </clipPath>
  </defs>
  <g id="auto-icon" transform="translate(-664 -1905)" clip-path="url(#clip-path)">
    <path id="Path_10303" data-name="Path 10303" d="M12.25-14a5.063,5.063,0,0,1,3.719,1.531A5.063,5.063,0,0,1,17.5-8.75v4.375a.852.852,0,0,1-.246.629.852.852,0,0,1-.629.246H14A5.063,5.063,0,0,1,12.469.219,5.063,5.063,0,0,1,8.75,1.75,5.063,5.063,0,0,1,5.031.219,5.063,5.063,0,0,1,3.5-3.5h-7A5.063,5.063,0,0,1-5.031.219,5.063,5.063,0,0,1-8.75,1.75,5.063,5.063,0,0,1-12.469.219,5.063,5.063,0,0,1-14-3.5h-2.625a.852.852,0,0,1-.629-.246.852.852,0,0,1-.246-.629V-10.5a3.382,3.382,0,0,1,1.012-2.488A3.382,3.382,0,0,1-14-14l2.625-6.562a3.312,3.312,0,0,1,1.285-1.586,3.435,3.435,0,0,1,1.941-.6H2.68a3.466,3.466,0,0,1,1.5.383,3.476,3.476,0,0,1,1.23.93L11.375-14Zm-14-7v7H9.133L4.047-20.344A1.613,1.613,0,0,0,2.68-21Zm-7.984,1.094L-12.141-14H-3.5v-7H-8.148A1.586,1.586,0,0,0-9.734-19.906Zm-1.5,18.895A3.382,3.382,0,0,0-8.75,0,3.382,3.382,0,0,0-6.262-1.012,3.382,3.382,0,0,0-5.25-3.5,3.382,3.382,0,0,0-6.262-5.988,3.382,3.382,0,0,0-8.75-7a3.382,3.382,0,0,0-2.488,1.012A3.382,3.382,0,0,0-12.25-3.5,3.382,3.382,0,0,0-11.238-1.012Zm17.5,0A3.382,3.382,0,0,0,8.75,0a3.382,3.382,0,0,0,2.488-1.012A3.382,3.382,0,0,0,12.25-3.5a3.382,3.382,0,0,0-1.012-2.488A3.382,3.382,0,0,0,8.75-7,3.382,3.382,0,0,0,6.262-5.988,3.382,3.382,0,0,0,5.25-3.5,3.382,3.382,0,0,0,6.262-1.012ZM15.75-5.25v-3.5a3.364,3.364,0,0,0-1.039-2.461A3.364,3.364,0,0,0,12.25-12.25H-14a1.682,1.682,0,0,0-1.23.52,1.682,1.682,0,0,0-.52,1.23v5.25h2.078a5.257,5.257,0,0,1,1.887-2.516A5,5,0,0,1-8.75-8.75a5,5,0,0,1,3.035.984A5.257,5.257,0,0,1-3.828-5.25H3.828A5.257,5.257,0,0,1,5.715-7.766,5,5,0,0,1,8.75-8.75a5,5,0,0,1,3.035.984A5.257,5.257,0,0,1,13.672-5.25Z" transform="translate(684 1936)" fill="#9e9e9e"/>
  </g>
</svg>
