<svg xmlns="http://www.w3.org/2000/svg" xmlns:xlink="http://www.w3.org/1999/xlink" width="40" height="40" viewBox="0 0 40 40">
  <defs>
    <clipPath id="clip-path">
      <rect id="Rectangle_2948" data-name="Rectangle 2948" width="40" height="40" transform="translate(664 1905)" fill="#9e9e9e"/>
    </clipPath>
  </defs>
  <g id="bike-icon" transform="translate(-664 -1905)" clip-path="url(#clip-path)">
    <path id="Path_10303" data-name="Path 10303" d="M10.555-14a6.746,6.746,0,0,1,4.977,2.105,6.688,6.688,0,0,1,2.023,5A6.755,6.755,0,0,1,15.449-2,6.838,6.838,0,0,1,10.5,0,6.681,6.681,0,0,1,5.605-2.051,6.681,6.681,0,0,1,3.555-6.945a6.8,6.8,0,0,1,2.734-5.633l-.93-1.477A8.952,8.952,0,0,0,2.6-10.609a8.52,8.52,0,0,0-.738,4.43,1.032,1.032,0,0,1-.055.328.767.767,0,0,1-.191.3,1.154,1.154,0,0,1-.3.219.728.728,0,0,1-.328.082H-3.664A6.891,6.891,0,0,1-6.152-1.477,6.779,6.779,0,0,1-10.445,0a6.744,6.744,0,0,1-4.949-2.051,6.776,6.776,0,0,1-2.051-4.977A6.731,6.731,0,0,1-15.367-12a6.645,6.645,0,0,1,4.977-2,6.277,6.277,0,0,1,2.188.383l.6-1.039a3.847,3.847,0,0,0-2.844-1.094H-13.07a.808.808,0,0,1-.629-.273.947.947,0,0,1-.246-.656.751.751,0,0,1,.273-.574.88.88,0,0,1,.6-.246h2.625q3.391,0,4.922,1.75H4.32l-2.133-3.5H-1.477a.58.58,0,0,1-.656-.656v-.437A.58.58,0,0,1-1.477-21H2.68a.857.857,0,0,1,.766.438l1.477,2.406,1.75-2.3A1.2,1.2,0,0,1,7.711-21h3.281a1.266,1.266,0,0,1,.93.383,1.266,1.266,0,0,1,.383.93v2.625a1.266,1.266,0,0,1-.383.93,1.266,1.266,0,0,1-.93.383H6.4l1.422,2.3A7.041,7.041,0,0,1,10.555-14ZM7.82-19.469,6.18-17.281h4.594v-2.187ZM-10.445-1.75A5,5,0,0,0-7.41-2.734,5.257,5.257,0,0,0-5.523-5.25h-5.8a.8.8,0,0,1-.738-.437.883.883,0,0,1-.027-.875l3.008-5.523a5.617,5.617,0,0,0-1.367-.164,5.063,5.063,0,0,0-3.719,1.531A5.063,5.063,0,0,0-15.7-7a5.063,5.063,0,0,0,1.531,3.719A5.063,5.063,0,0,0-10.445-1.75ZM.055-7a10.2,10.2,0,0,1,2.68-7h-8.75L-9.844-7ZM10.336-1.75a5.217,5.217,0,0,0,2.734-.629,5.164,5.164,0,0,0,2-1.914A5.163,5.163,0,0,0,15.8-7a5.063,5.063,0,0,0-1.531-3.719,5.063,5.063,0,0,0-3.719-1.531,5.1,5.1,0,0,0-1.8.328l3.117,5.086a.624.624,0,0,1-.219.93l-.383.219a.624.624,0,0,1-.93-.219L7.219-11.047A4.947,4.947,0,0,0,5.3-6.781,5.152,5.152,0,0,0,6.863-3.309,5.152,5.152,0,0,0,10.336-1.75Z" transform="translate(684 1936)" fill="#9e9e9e"/>
  </g>
</svg>
