<svg xmlns="http://www.w3.org/2000/svg" xmlns:xlink="http://www.w3.org/1999/xlink" width="30" height="30" viewBox="0 0 30 30">
  <defs>
    <clipPath id="clip-path">
      <rect id="Rectangle_2749" data-name="Rectangle 2749" width="30" height="30" transform="translate(664 1905)" fill="#00c685"/>
    </clipPath>
  </defs>
  <g id="clear-icon" transform="translate(-664 -1905)" clip-path="url(#clip-path)">
    <path id="Path_10358" data-name="Path 10358" d="M-7.562-15.77A10.307,10.307,0,0,1,0-18.906a10.271,10.271,0,0,1,7.541,3.115A10.271,10.271,0,0,1,10.656-8.25,10.271,10.271,0,0,1,7.541-.709,10.271,10.271,0,0,1,0,2.406,10.271,10.271,0,0,1-7.541-.709,10.271,10.271,0,0,1-10.656-8.25,10.236,10.236,0,0,1-7.562-15.77ZM0,1.031A8.915,8.915,0,0,0,6.574-1.7,8.971,8.971,0,0,0,9.281-8.25a8.915,8.915,0,0,0-2.729-6.574A8.971,8.971,0,0,0,0-17.531,8.915,8.915,0,0,0-6.574-14.8,8.971,8.971,0,0,0-9.281-8.25,8.915,8.915,0,0,0-6.553-1.676,8.971,8.971,0,0,0,0,1.031ZM4.082-11.215,1.117-8.25,4.082-5.285a.474.474,0,0,1,0,.73L3.7-4.168a.474.474,0,0,1-.73,0L0-7.133-2.965-4.168a.474.474,0,0,1-.73,0l-.387-.387a.474.474,0,0,1,0-.73L-1.117-8.25l-2.965-2.965a.474.474,0,0,1,0-.73l.387-.387a.474.474,0,0,1,.73,0L0-9.367l2.965-2.965a.474.474,0,0,1,.73,0l.387.387A.474.474,0,0,1,4.082-11.215Z" transform="translate(678.656 1927.906)" fill="#00c685"/>
  </g>
</svg>
