<svg xmlns="http://www.w3.org/2000/svg" xmlns:xlink="http://www.w3.org/1999/xlink" width="30" height="30" viewBox="0 0 30 30">
  <defs>
    <clipPath id="clip-path">
      <rect id="Rectangle_2448" data-name="Rectangle 2448" width="30" height="30" transform="translate(664 1905)" fill="#212121"/>
    </clipPath>
  </defs>
  <g id="Mask_Group_52" data-name="Mask Group 52" transform="translate(-664 -1905)" clip-path="url(#clip-path)">
    <path id="Path_10225" data-name="Path 10225" d="M1.525-8.25,6.854-2.922a.313.313,0,0,1,0,.473l-.988.988a.313.313,0,0,1-.473,0l-.9-.945L.064-6.789-5.264-1.461a.313.313,0,0,1-.473,0l-.988-.988a.313.313,0,0,1,0-.473L-1.4-8.25l-5.328-5.328a.313.313,0,0,1,0-.473l.988-.988a.313.313,0,0,1,.473,0L.064-9.711l5.328-5.328a.313.313,0,0,1,.473,0l.988.988a.313.313,0,0,1,0,.473l-.945.9Z" transform="translate(679 1928)" fill="#212121"/>
  </g>
</svg>
