<svg xmlns="http://www.w3.org/2000/svg" xmlns:xlink="http://www.w3.org/1999/xlink" width="30" height="30" viewBox="0 0 30 30">
  <defs>
    <clipPath id="clip-path">
      <rect id="Rectangle_2948" data-name="Rectangle 2948" width="30" height="30" transform="translate(664 1905)" fill="#e16460"/>
    </clipPath>
  </defs>
  <g id="delete-icon" transform="translate(-664 -1905)" clip-path="url(#clip-path)">
    <path id="Path_10303" data-name="Path 10303" d="M3.094-.687a.3.3,0,0,1-.344-.344V-12.719a.3.3,0,0,1,.344-.344h.688a.3.3,0,0,1,.344.344V-1.031a.3.3,0,0,1-.344.344Zm-6.875,0a.3.3,0,0,1-.344-.344V-12.719a.3.3,0,0,1,.344-.344h.688a.3.3,0,0,1,.344.344V-1.031a.3.3,0,0,1-.344.344ZM9.281-16.5a.3.3,0,0,1,.344.344v.688a.3.3,0,0,1-.344.344H8.25V.688a1.989,1.989,0,0,1-.6,1.461,1.989,1.989,0,0,1-1.461.6H-6.187a1.989,1.989,0,0,1-1.461-.6A1.989,1.989,0,0,1-8.25.688V-15.125H-9.281a.3.3,0,0,1-.344-.344v-.687a.3.3,0,0,1,.344-.344h4.469l1.461-1.934a2.02,2.02,0,0,1,.73-.58,2.02,2.02,0,0,1,.9-.236H1.719a2.02,2.02,0,0,1,.9.236,2.02,2.02,0,0,1,.73.58L4.813-16.5ZM-2.277-17.617-3.094-16.5H3.094l-.816-1.117a.693.693,0,0,0-.559-.258H-1.719A.693.693,0,0,0-2.277-17.617ZM6.875.688V-15.125H-6.875V.688a.669.669,0,0,0,.193.494.669.669,0,0,0,.494.193H6.188A.662.662,0,0,0,6.875.688ZM-.344-.687a.3.3,0,0,1-.344-.344V-12.719a.3.3,0,0,1,.344-.344H.344a.3.3,0,0,1,.344.344V-1.031a.3.3,0,0,1-.344.344Z" transform="translate(679 1928)" fill="#e16460"/>
  </g>
</svg>
