<svg xmlns="http://www.w3.org/2000/svg" xmlns:xlink="http://www.w3.org/1999/xlink" width="20" height="20" viewBox="0 0 20 20">
  <defs>
    <clipPath id="clip-path">
      <rect id="Rectangle_2751" data-name="Rectangle 2751" width="20" height="20" transform="translate(664 1906.369)" fill="#ed5757"/>
    </clipPath>
  </defs>
  <g id="down-icon" transform="translate(-664 -1906.369)" clip-path="url(#clip-path)">
    <path id="Path_10360" data-name="Path 10360" d="M-1.687-14.625H1.688a.814.814,0,0,1,.6.246.814.814,0,0,1,.246.6V-6.75H6.188a.771.771,0,0,1,.773.527.783.783,0,0,1-.176.914L.6.879a.747.747,0,0,1-1.2,0L-6.785-5.309a.783.783,0,0,1-.176-.914.771.771,0,0,1,.773-.527h3.656v-7.031a.814.814,0,0,1,.246-.6A.814.814,0,0,1-1.687-14.625Z" transform="translate(674.035 1922.994)" fill="#ed5757"/>
  </g>
</svg>
