<svg xmlns="http://www.w3.org/2000/svg" xmlns:xlink="http://www.w3.org/1999/xlink" width="30" height="30" viewBox="0 0 30 30">
  <defs>
    <clipPath id="clip-path">
      <rect id="Rectangle_2745" data-name="Rectangle 2745" width="30" height="30" transform="translate(664 1905)" fill="#00c685"/>
    </clipPath>
  </defs>
  <g id="Export-icon" transform="translate(-664 -1905)" clip-path="url(#clip-path)">
    <path id="Path_10357" data-name="Path 10357" d="M7.648-15.039a1.989,1.989,0,0,1,.6,1.461V.688a1.989,1.989,0,0,1-.6,1.461,1.989,1.989,0,0,1-1.461.6H-6.187a1.989,1.989,0,0,1-1.461-.6A1.989,1.989,0,0,1-8.25.688V-17.187a1.991,1.991,0,0,1,.279-1.031,2.1,2.1,0,0,1,.752-.752,1.991,1.991,0,0,1,1.031-.279H2.578a1.989,1.989,0,0,1,1.461.6Zm-4.9-2.793v4.082H6.875a1.147,1.147,0,0,0-.215-.3L3.051-17.66A.637.637,0,0,0,2.75-17.832ZM6.875.688V-12.375H2.406a1,1,0,0,1-.73-.3,1,1,0,0,1-.3-.73v-4.469H-6.187a.669.669,0,0,0-.494.193.669.669,0,0,0-.193.494V.688a.669.669,0,0,0,.193.494.669.669,0,0,0,.494.193H6.188A.662.662,0,0,0,6.875.688ZM.688-9.969v3.781H2.965a1.129,1.129,0,0,1,1.074.73,1.168,1.168,0,0,1-.258,1.332L.859-1.074A1.1,1.1,0,0,1,0-.687a1.1,1.1,0,0,1-.859-.387L-3.781-4.125a1.168,1.168,0,0,1-.258-1.332,1.079,1.079,0,0,1,1.074-.73H-.687V-9.969a.3.3,0,0,1,.344-.344H.344A.3.3,0,0,1,.688-9.969ZM2.535-4.812h-5.07L0-2.148Z" transform="translate(679.25 1928.25)" fill="#00c685"/>
  </g>
</svg>
