<svg xmlns="http://www.w3.org/2000/svg" xmlns:xlink="http://www.w3.org/1999/xlink" width="40" height="40" viewBox="0 0 40 40">
  <defs>
    <clipPath id="clip-path">
      <rect id="Rectangle_2948" data-name="Rectangle 2948" width="40" height="40" transform="translate(664 1905)" fill="#9e9e9e"/>
    </clipPath>
  </defs>
  <g id="footpath-icon" transform="translate(-664 -1905)" clip-path="url(#clip-path)">
    <path id="Path_10303" data-name="Path 10303" d="M8.039-10.992A2.845,2.845,0,0,1,8.586-7.82,3.024,3.024,0,0,1,7.492-6.535a2.746,2.746,0,0,1-1.531.465H5.688a6.458,6.458,0,0,1,.766,2.023L7.328,0a2.911,2.911,0,0,1-.383,2.133,2.686,2.686,0,0,1-1.7,1.258,2.064,2.064,0,0,1-.656.109,2.613,2.613,0,0,1-1.75-.656A2.95,2.95,0,0,1,1.859,1.2L.984-2.844A.158.158,0,0,0,.93-2.953l-.547-.6L-.109-2.242a5.437,5.437,0,0,1-1.2,2.023L-3.883,2.57a2.593,2.593,0,0,1-2.023.93A2.593,2.593,0,0,1-7.93,2.57a2.818,2.818,0,0,1-.766-2,2.818,2.818,0,0,1,.766-2l2.57-2.844.93-2.461.766-2.133a.243.243,0,0,0-.027-.109.243.243,0,0,1-.027-.109,2.565,2.565,0,0,1-1.8.711A2.712,2.712,0,0,1-7.875-9.652a2.682,2.682,0,0,1-.219-2.762l.6-1.531a5.772,5.772,0,0,1,3.008-3.008l.492-.219a16.749,16.749,0,0,1,2.461-.984,3.979,3.979,0,0,1-.711-2.3,3.906,3.906,0,0,1,1.176-2.871A3.906,3.906,0,0,1,1.8-24.5a3.906,3.906,0,0,1,2.871,1.176,3.906,3.906,0,0,1,1.176,2.871A3.828,3.828,0,0,1,4.1-17.117a6.752,6.752,0,0,1,2.352,3.445l.492,1.531ZM3.418-22.066A2.206,2.206,0,0,0,1.8-22.75a2.206,2.206,0,0,0-1.613.684,2.206,2.206,0,0,0-.684,1.613A2.206,2.206,0,0,0,.191-18.84a2.206,2.206,0,0,0,1.613.684,2.206,2.206,0,0,0,1.613-.684A2.206,2.206,0,0,0,4.1-20.453,2.206,2.206,0,0,0,3.418-22.066ZM-1.75-2.844l.6-1.586L-2.734-6.07l-.055-.055-.93,2.461a1.535,1.535,0,0,1-.383.6L-6.617-.219a1.08,1.08,0,0,0-.328.793,1.233,1.233,0,0,0,.3.82.932.932,0,0,0,.738.355.984.984,0,0,0,.766-.383l2.516-2.789A3.586,3.586,0,0,0-1.75-2.844ZM5.961-7.82A1.051,1.051,0,0,0,6.945-8.5a1.079,1.079,0,0,0-.219-1.285L5.469-11.156a.636.636,0,0,1-.109-.164L4.813-13.18a5.093,5.093,0,0,0-.984-1.8,4.872,4.872,0,0,0-1.531-1.2,4.1,4.1,0,0,0-1.859-.437H-.055a2.146,2.146,0,0,0-.465.055q-.246.055-.383.082t-.41.109q-.273.082-.41.137t-.465.191q-.328.137-.437.191t-.547.246q-.438.191-.6.246a3.852,3.852,0,0,0-2.078,2.133l-.656,1.477a1.115,1.115,0,0,0,.082,1.148,1.073,1.073,0,0,0,.9.492.949.949,0,0,0,.93-.656l.6-1.477a1.856,1.856,0,0,1,.984-.984q1.477-.656,1.969-.82l-.875,3.773a2.925,2.925,0,0,0,.656,2.625l3.445,3.5a2.166,2.166,0,0,1,.547.984L3.555.875a1,1,0,0,0,1.039.875h.219a.989.989,0,0,0,.656-.52,1.517,1.517,0,0,0,.164-.9L4.758-3.719A4.214,4.214,0,0,0,3.609-5.852L1.258-8.2l1.148-5.031a14.35,14.35,0,0,1,.984,2.625,2.7,2.7,0,0,0,.6,1.094L5.25-8.148A.993.993,0,0,0,5.961-7.82Z" transform="translate(684 1936)" fill="#9e9e9e"/>
  </g>
</svg>
