<svg xmlns="http://www.w3.org/2000/svg" xmlns:xlink="http://www.w3.org/1999/xlink" width="40" height="40" viewBox="0 0 40 40">
  <defs>
    <clipPath id="clip-path">
      <rect id="Rectangle_2948" data-name="Rectangle 2948" width="40" height="40" transform="translate(664 1905)" fill="#9e9e9e"/>
    </clipPath>
  </defs>
  <g id="parks-icon" transform="translate(-664 -1905)" clip-path="url(#clip-path)">
    <path id="Path_10303" data-name="Path 10303" d="M11.156-13.4a5.011,5.011,0,0,1,2.078,1.914A5.163,5.163,0,0,1,14-8.75a5.063,5.063,0,0,1-1.531,3.719A5.063,5.063,0,0,1,8.75-3.5H2.625V-.437l1.313,2.68a.831.831,0,0,1-.027.848.806.806,0,0,1-.738.41H-3.172a.806.806,0,0,1-.738-.41.831.831,0,0,1-.027-.848l1.313-2.68V-3.5H-8.75a5.063,5.063,0,0,1-3.719-1.531A5.063,5.063,0,0,1-14-8.75a5.163,5.163,0,0,1,.766-2.734A5.011,5.011,0,0,1-11.156-13.4a4.992,4.992,0,0,1-.219-1.477,5.063,5.063,0,0,1,1.531-3.719,5.063,5.063,0,0,1,3.719-1.531,3.822,3.822,0,0,1,.93.109,5.068,5.068,0,0,1,1.75-3.2A5.085,5.085,0,0,1,0-24.5a5.085,5.085,0,0,1,3.445,1.285,5.068,5.068,0,0,1,1.75,3.2,3.822,3.822,0,0,1,.93-.109,5.063,5.063,0,0,1,3.719,1.531,5.063,5.063,0,0,1,1.531,3.719A4.992,4.992,0,0,1,11.156-13.4ZM-1.75,1.75h3.5L.875,0V-3.5H-.875V0Zm10.5-7a3.364,3.364,0,0,0,2.461-1.039A3.364,3.364,0,0,0,12.25-8.75a3.424,3.424,0,0,0-.684-2.078,3.347,3.347,0,0,0-1.777-1.258L8.75-12.359l.492-.93a3.742,3.742,0,0,0,.383-1.586,3.364,3.364,0,0,0-1.039-2.461,3.364,3.364,0,0,0-2.461-1.039H5.8a1.3,1.3,0,0,0-.355.055q-.191.055-.3.082a2.53,2.53,0,0,0-.355.137q-.246.109-.355.164t-.52.219a3.458,3.458,0,0,0-.574.273l.164-1.7a3.75,3.75,0,0,0-.465-1.832A3.3,3.3,0,0,0,1.75-22.285,3.494,3.494,0,0,0,0-22.75a3.364,3.364,0,0,0-2.461,1.039A3.364,3.364,0,0,0-3.5-19.25q.055.328.164,1.8a8.973,8.973,0,0,0-2.789-.93,3.364,3.364,0,0,0-2.461,1.039,3.364,3.364,0,0,0-1.039,2.461,3.742,3.742,0,0,0,.383,1.586l.492.93-1.039.273a3.347,3.347,0,0,0-1.777,1.258A3.424,3.424,0,0,0-12.25-8.75a3.364,3.364,0,0,0,1.039,2.461A3.364,3.364,0,0,0-8.75-5.25Z" transform="translate(684 1936)" fill="#9e9e9e"/>
  </g>
</svg>
