<svg xmlns="http://www.w3.org/2000/svg" xmlns:xlink="http://www.w3.org/1999/xlink" width="40" height="40" viewBox="0 0 40 40">
  <defs>
    <clipPath id="clip-path">
      <rect id="Rectangle_2948" data-name="Rectangle 2948" width="40" height="40" transform="translate(664 1905)" fill="#9e9e9e"/>
    </clipPath>
  </defs>
  <g id="Parking-icon" transform="translate(-664 -1905)" clip-path="url(#clip-path)">
    <path id="Path_10303" data-name="Path 10303" d="M9.625-22.75a2.531,2.531,0,0,1,1.859.766,2.531,2.531,0,0,1,.766,1.859V-.875A2.531,2.531,0,0,1,11.484.984a2.531,2.531,0,0,1-1.859.766H-9.625A2.531,2.531,0,0,1-11.484.984,2.531,2.531,0,0,1-12.25-.875v-19.25a2.531,2.531,0,0,1,.766-1.859,2.531,2.531,0,0,1,1.859-.766ZM10.5-.875v-19.25a.852.852,0,0,0-.246-.629A.852.852,0,0,0,9.625-21H-9.625a.852.852,0,0,0-.629.246.852.852,0,0,0-.246.629V-.875a.852.852,0,0,0,.246.629A.852.852,0,0,0-9.625,0H9.625a.852.852,0,0,0,.629-.246A.852.852,0,0,0,10.5-.875ZM1.094-17.5a5.04,5.04,0,0,1,3.363,1.23,4.635,4.635,0,0,1,1.668,3.09A4.8,4.8,0,0,1,4.867-9.461,4.576,4.576,0,0,1,1.313-7.875H-2.625v3.938a.387.387,0,0,1-.437.438h-.875a.387.387,0,0,1-.437-.437V-17.062a.387.387,0,0,1,.438-.437Zm.219,7.875a2.947,2.947,0,0,0,2.16-.9,2.947,2.947,0,0,0,.9-2.16,2.947,2.947,0,0,0-.9-2.16,2.947,2.947,0,0,0-2.16-.9H-2.625v6.125Z" transform="translate(684 1936)" fill="#9e9e9e"/>
  </g>
</svg>
