<svg xmlns="http://www.w3.org/2000/svg" width="10.063" height="13.992" viewBox="0 0 10.063 13.992">
  <path id="Path_10226" data-name="Path 10226" d="M-4.184-5.625H4.184a.771.771,0,0,1,.773.527.783.783,0,0,1-.176.914L.6,0A.814.814,0,0,1,0,.246.814.814,0,0,1-.6,0L-4.781-4.184A.783.783,0,0,1-4.957-5.1.771.771,0,0,1-4.184-5.625ZM4.781-9.316a.783.783,0,0,1,.176.914.771.771,0,0,1-.773.527H-4.184A.771.771,0,0,1-4.957-8.4a.783.783,0,0,1,.176-.914L-.6-13.5a.814.814,0,0,1,.6-.246.814.814,0,0,1,.6.246Z" transform="translate(5.031 13.746)" fill="#00c685"/>
</svg>
