<svg xmlns="http://www.w3.org/2000/svg" width="21.313" height="21.313" viewBox="0 0 21.313 21.313">
  <path id="Path_10227" data-name="Path 10227" d="M-7.541-15.791A10.271,10.271,0,0,1,0-18.906a10.271,10.271,0,0,1,7.541,3.115A10.271,10.271,0,0,1,10.656-8.25,10.271,10.271,0,0,1,7.541-.709,10.271,10.271,0,0,1,0,2.406,10.271,10.271,0,0,1-7.541-.709,10.271,10.271,0,0,1-10.656-8.25,10.271,10.271,0,0,1-7.541-15.791ZM9.281-8.25a8.915,8.915,0,0,0-2.729-6.574A8.971,8.971,0,0,0,0-17.531,8.915,8.915,0,0,0-6.574-14.8,8.971,8.971,0,0,0-9.281-8.25,8.915,8.915,0,0,0-6.553-1.676,8.971,8.971,0,0,0,0,1.031,8.915,8.915,0,0,0,6.574-1.7,8.971,8.971,0,0,0,9.281-8.25Zm-6.4,3.781L-.6-7a.422.422,0,0,1-.215-.387v-6.875A.456.456,0,0,1-.3-14.781H.3a.456.456,0,0,1,.516.516v6.273L3.867-5.758a.433.433,0,0,1,.086.688l-.344.516A.475.475,0,0,1,2.879-4.469Z" transform="translate(10.656 18.906)" fill="#757575"/>
</svg>
