<svg xmlns="http://www.w3.org/2000/svg" xmlns:xlink="http://www.w3.org/1999/xlink" width="40" height="40" viewBox="0 0 40 40">
  <defs>
    <clipPath id="clip-path">
      <rect id="Rectangle_2950" data-name="Rectangle 2950" width="40" height="40" transform="translate(664 1905)" fill="#9e9e9e"/>
    </clipPath>
  </defs>
  <g id="power-icon" transform="translate(-664 -1905)" clip-path="url(#clip-path)">
    <path id="Path_10304" data-name="Path 10304" d="M7.492-15.75a1.246,1.246,0,0,1,1.148.656,1.221,1.221,0,0,1,0,1.313L-.984,2.844A1.246,1.246,0,0,1-2.133,3.5a1.246,1.246,0,0,1-1.039-.492,1.274,1.274,0,0,1-.219-1.148L-.875-8.75H-7.383a1.257,1.257,0,0,1-.711-.219,1.411,1.411,0,0,1-.492-.547,1.18,1.18,0,0,1-.109-.711l1.75-13.125a1.453,1.453,0,0,1,.246-.6,1.245,1.245,0,0,1,.465-.41,1.326,1.326,0,0,1,.6-.137H2.242a1.223,1.223,0,0,1,1.039.52A1.25,1.25,0,0,1,3.5-22.859L1.2-15.75ZM-1.039-.6,6.727-14H-1.258l.766-2.3L1.641-22.75H-5.25L-6.891-10.5h8.2L.82-8.367Z" transform="translate(684 1936)" fill="#9e9e9e"/>
  </g>
</svg>
