<svg xmlns="http://www.w3.org/2000/svg" xmlns:xlink="http://www.w3.org/1999/xlink" width="40" height="40" viewBox="0 0 40 40">
  <defs>
    <clipPath id="clip-path">
      <rect id="Rectangle_2952" data-name="Rectangle 2952" width="40" height="40" transform="translate(664 1905)" fill="#9e9e9e"/>
    </clipPath>
  </defs>
  <g id="rubbish-icon" transform="translate(-664 -1905)" clip-path="url(#clip-path)">
    <path id="Path_10306" data-name="Path 10306" d="M11.813-21a.387.387,0,0,1,.438.438v.875a.387.387,0,0,1-.437.438H10.773L8.969,1.094a2.656,2.656,0,0,1-.875,1.7,2.5,2.5,0,0,1-1.75.711H-6.344a2.5,2.5,0,0,1-1.75-.711,2.656,2.656,0,0,1-.875-1.7l-1.8-20.344h-1.039a.387.387,0,0,1-.437-.437v-.875A.387.387,0,0,1-11.812-21h5.688l1.859-2.461a2.57,2.57,0,0,1,.93-.738,2.57,2.57,0,0,1,1.148-.3H2.188a2.57,2.57,0,0,1,1.148.3,2.57,2.57,0,0,1,.93.738L6.125-21ZM-2.9-22.422-3.937-21H3.938L2.9-22.422a.882.882,0,0,0-.711-.328H-2.187A.882.882,0,0,0-2.9-22.422ZM7.219.93l1.8-20.18H-9.023L-7.219.93a.751.751,0,0,0,.273.574.88.88,0,0,0,.6.246H6.344a.813.813,0,0,0,.41-.109,1.029,1.029,0,0,0,.328-.3A.693.693,0,0,0,7.219.93Z" transform="translate(684 1936)" fill="#9e9e9e"/>
  </g>
</svg>
