<svg xmlns="http://www.w3.org/2000/svg" xmlns:xlink="http://www.w3.org/1999/xlink" width="24" height="24" viewBox="0 0 24 24">
  <defs>
    <clipPath id="clip-path">
      <rect id="Rectangle_2748" data-name="Rectangle 2748" width="24" height="24" fill="#fff"/>
    </clipPath>
  </defs>
  <g id="Search-icon" clip-path="url(#clip-path)">
    <path id="Path_10361" data-name="Path 10361" d="M9.844,1.328a.4.4,0,0,1,0,.664l-.352.352a.4.4,0,0,1-.664,0l-5.039-5a.486.486,0,0,1-.156-.352V-3.4A7.887,7.887,0,0,1-1.875-1.25,7.826,7.826,0,0,1-7.617-3.633,7.826,7.826,0,0,1-10-9.375a7.826,7.826,0,0,1,2.383-5.742A7.826,7.826,0,0,1-1.875-17.5a7.826,7.826,0,0,1,5.742,2.383A7.826,7.826,0,0,1,6.25-9.375,7.887,7.887,0,0,1,4.1-3.867h.391a.486.486,0,0,1,.352.156Zm-16.6-5.82A6.724,6.724,0,0,0-1.875-2.5,6.625,6.625,0,0,0,2.988-4.512,6.625,6.625,0,0,0,5-9.375a6.625,6.625,0,0,0-2.012-4.863A6.625,6.625,0,0,0-1.875-16.25a6.625,6.625,0,0,0-4.863,2.012A6.625,6.625,0,0,0-8.75-9.375,6.724,6.724,0,0,0-6.758-4.492Z" transform="translate(12 19.5)" fill="#9e9e9e"/>
  </g>
</svg>
