<svg xmlns="http://www.w3.org/2000/svg" xmlns:xlink="http://www.w3.org/1999/xlink" width="40" height="40" viewBox="0 0 40 40">
  <defs>
    <clipPath id="clip-path">
      <rect id="Rectangle_2948" data-name="Rectangle 2948" width="40" height="40" transform="translate(664 1905)" fill="#9e9e9e"/>
    </clipPath>
  </defs>
  <g id="taxi-icon" transform="translate(-664 -1905)" clip-path="url(#clip-path)">
    <path id="Path_10303" data-name="Path 10303" d="M-7.328-10.937a3.141,3.141,0,0,1,2.023.82,2.346,2.346,0,0,1,.984,1.8q0,1.75-2.461,1.75h-.547a2.522,2.522,0,0,1-1.777-.629A2.033,2.033,0,0,1-9.789-8.75a2.033,2.033,0,0,1,.684-1.559A2.522,2.522,0,0,1-7.328-10.937Zm.547,3.063q1.148,0,1.148-.437,0-.383-.6-.848a1.858,1.858,0,0,0-1.094-.465q-1.148,0-1.148.875t1.148.875h.547ZM7.438-10.937a2.522,2.522,0,0,1,1.777.629A2.033,2.033,0,0,1,9.9-8.75a2.033,2.033,0,0,1-.684,1.559,2.522,2.522,0,0,1-1.777.629H6.891q-2.461,0-2.461-1.75a2.346,2.346,0,0,1,.984-1.8A3.141,3.141,0,0,1,7.438-10.937Zm0,3.063q1.148,0,1.148-.875T7.438-9.625a1.858,1.858,0,0,0-1.094.465q-.6.465-.6.848,0,.438,1.148.438h.547Zm4.43-8.75a2.079,2.079,0,0,1,1.859,1.039,2.044,2.044,0,0,1,.109,2.133l-.328.6a2.566,2.566,0,0,1-.93,1.039,4.3,4.3,0,0,1,.6,2.188v7a2.531,2.531,0,0,1-.766,1.859A2.531,2.531,0,0,1,10.555,0H9.68A2.531,2.531,0,0,1,7.82-.766a2.531,2.531,0,0,1-.766-1.859V-3.5h-14v.875A2.531,2.531,0,0,1-7.711-.766,2.531,2.531,0,0,1-9.57,0h-.875A2.531,2.531,0,0,1-12.3-.766a2.531,2.531,0,0,1-.766-1.859v-7a4.3,4.3,0,0,1,.6-2.187,2.566,2.566,0,0,1-.93-1.039l-.328-.6a2.044,2.044,0,0,1,.109-2.133,2.079,2.079,0,0,1,1.859-1.039h2.734l.438-1.367A4.339,4.339,0,0,1-7-20.152,4.224,4.224,0,0,1-4.43-21H4.539a4.224,4.224,0,0,1,2.57.848A4.339,4.339,0,0,1,8.7-17.992l.438,1.367Zm-18.812-.82L-8.039-14H8.148L7.055-17.445A2.58,2.58,0,0,0,6.1-18.758a2.6,2.6,0,0,0-1.559-.492H-4.43a2.6,2.6,0,0,0-1.559.492A2.58,2.58,0,0,0-6.945-17.445Zm-4.867,3.828a.858.858,0,0,0,.6.438,4.467,4.467,0,0,1,1.258-.6l.328-1.094h-2.133a.408.408,0,0,0-.355.219.422.422,0,0,0-.027.438ZM-8.7-2.625V-3.5H-11.32v.875A.852.852,0,0,0-11.074-2a.852.852,0,0,0,.629.246h.875A.852.852,0,0,0-8.941-2,.852.852,0,0,0-8.7-2.625Zm20.125,0V-3.5H8.8v.875A.852.852,0,0,0,9.051-2a.852.852,0,0,0,.629.246h.875A.852.852,0,0,0,11.184-2,.852.852,0,0,0,11.43-2.625ZM11.43-7V-9.625a2.531,2.531,0,0,0-.766-1.859A2.531,2.531,0,0,0,8.8-12.25H-8.7a2.531,2.531,0,0,0-1.859.766,2.531,2.531,0,0,0-.766,1.859V-5.25H11.43Zm.82-7.219a.422.422,0,0,0-.027-.437.408.408,0,0,0-.355-.219H9.734l.328,1.094a5.685,5.685,0,0,1,1.258.6.858.858,0,0,0,.6-.437Z" transform="translate(684 1936)" fill="#9e9e9e"/>
  </g>
</svg>
