<svg xmlns="http://www.w3.org/2000/svg" xmlns:xlink="http://www.w3.org/1999/xlink" width="40" height="40" viewBox="0 0 40 40">
  <defs>
    <clipPath id="clip-path">
      <rect id="Rectangle_2948" data-name="Rectangle 2948" width="40" height="40" transform="translate(664 1905)" fill="#9e9e9e"/>
    </clipPath>
  </defs>
  <g id="transport-icon" transform="translate(-664 -1905)" clip-path="url(#clip-path)">
    <path id="Path_10303" data-name="Path 10303" d="M8.23-4.02A1.682,1.682,0,0,1,7-3.5a1.682,1.682,0,0,1-1.23-.52,1.682,1.682,0,0,1-.52-1.23,1.682,1.682,0,0,1,.52-1.23A1.682,1.682,0,0,1,7-7a1.682,1.682,0,0,1,1.23.52,1.682,1.682,0,0,1,.52,1.23A1.682,1.682,0,0,1,8.23-4.02Zm-14,0A1.682,1.682,0,0,1-7-3.5a1.682,1.682,0,0,1-1.23-.52,1.682,1.682,0,0,1-.52-1.23,1.682,1.682,0,0,1,.52-1.23A1.682,1.682,0,0,1-7-7a1.682,1.682,0,0,1,1.23.52,1.682,1.682,0,0,1,.52,1.23A1.682,1.682,0,0,1-5.77-4.02ZM12.688-17.5a1.266,1.266,0,0,1,.93.383,1.266,1.266,0,0,1,.383.93v4.375a1.266,1.266,0,0,1-.383.93,1.266,1.266,0,0,1-.93.383H12.25v8.75a1.682,1.682,0,0,1-.52,1.23A1.682,1.682,0,0,1,10.5,0V1.75a1.682,1.682,0,0,1-.52,1.23,1.682,1.682,0,0,1-1.23.52H6.125a1.682,1.682,0,0,1-1.23-.52,1.682,1.682,0,0,1-.52-1.23V0h-8.75V1.75a1.682,1.682,0,0,1-.52,1.23,1.682,1.682,0,0,1-1.23.52H-8.75a1.682,1.682,0,0,1-1.23-.52,1.682,1.682,0,0,1-.52-1.23V0a1.682,1.682,0,0,1-1.23-.52,1.682,1.682,0,0,1-.52-1.23V-10.5h-.437a1.266,1.266,0,0,1-.93-.383,1.266,1.266,0,0,1-.383-.93v-4.375a1.266,1.266,0,0,1,.383-.93,1.266,1.266,0,0,1,.93-.383h.438v-2.625q0-1.859,3.555-3.117A26.244,26.244,0,0,1,0-24.5a26.244,26.244,0,0,1,8.7,1.258q3.555,1.258,3.555,3.117V-17.5Zm-23.187,0v7H-.875v-7ZM-6.125,1.75V0H-8.75V1.75Zm14.875,0V0H6.125V1.75Zm1.75-3.5v-7h-21v7Zm0-8.75v-7H.875v7Zm0-8.75v-.875q-.109-.437-1.23-1.012A15.464,15.464,0,0,0,5.633-22.23,27.948,27.948,0,0,0,0-22.75a27.948,27.948,0,0,0-5.633.52A15.464,15.464,0,0,0-9.27-21.137q-1.121.574-1.23,1.012v.875h7v-.437a1.266,1.266,0,0,1,.383-.93A1.266,1.266,0,0,1-2.187-21H2.188a1.266,1.266,0,0,1,.93.383,1.266,1.266,0,0,1,.383.93v.438Z" transform="translate(684 1936)" fill="#9e9e9e"/>
  </g>
</svg>
