<svg xmlns="http://www.w3.org/2000/svg" xmlns:xlink="http://www.w3.org/1999/xlink" width="40" height="40" viewBox="0 0 40 40">
  <defs>
    <clipPath id="clip-path">
      <rect id="Rectangle_2951" data-name="Rectangle 2951" width="40" height="40" transform="translate(664 1905)" fill="#9e9e9e"/>
    </clipPath>
  </defs>
  <g id="trees-icon" transform="translate(-664 -1905)" clip-path="url(#clip-path)">
    <path id="Path_10305" data-name="Path 10305" d="M17.336-3.227a.816.816,0,0,1,.137.957.824.824,0,0,1-.793.52H7.93V-.437l1.313,2.68a.831.831,0,0,1-.027.848.806.806,0,0,1-.738.41H2.133a.806.806,0,0,1-.738-.41.831.831,0,0,1-.027-.848L2.68-.437V-1.75H-2.57V-.437l1.313,2.68a.831.831,0,0,1-.027.848.806.806,0,0,1-.738.41H-8.367a.806.806,0,0,1-.738-.41.831.831,0,0,1-.027-.848L-7.82-.437V-1.75h-8.75a.824.824,0,0,1-.793-.52.816.816,0,0,1,.137-.957l4.047-4.648H-14.82a.824.824,0,0,1-.793-.52.728.728,0,0,1,.137-.9l3.938-4.7H-13.07a.876.876,0,0,1-.82-.547,1.032,1.032,0,0,1-.055-.328.941.941,0,0,1,.219-.6l7.875-8.75A.9.9,0,0,1-5.2-24.5a.9.9,0,0,1,.656.273L.055-19.086l4.594-5.141A.9.9,0,0,1,5.3-24.5a.9.9,0,0,1,.656.273l7.875,8.75a.816.816,0,0,1,.137.957.824.824,0,0,1-.793.52H11.648l3.938,4.7a.728.728,0,0,1,.137.9.824.824,0,0,1-.793.52H13.289ZM-6.945,1.75h3.5L-4.32,0V-1.75H-6.07V0ZM-14.656-3.5H4.266L-.984-9.625H2.57l-5.2-6.125H.711L-5.2-22.312-11.1-15.75h3.336l-5.2,6.125h3.555ZM3.555,1.75h3.5L6.18,0V-1.75H4.43V0ZM6.563-3.5h8.2L9.516-9.625H13.07l-5.2-6.125h3.336L5.3-22.312,1.258-17.773l2.078,2.3a.816.816,0,0,1,.137.957A.824.824,0,0,1,2.68-14H1.148L5.086-9.3a.728.728,0,0,1,.137.9.824.824,0,0,1-.793.52H2.789Z" transform="translate(684 1936)" fill="#9e9e9e"/>
  </g>
</svg>
