<svg xmlns="http://www.w3.org/2000/svg" xmlns:xlink="http://www.w3.org/1999/xlink" width="20" height="20" viewBox="0 0 20 20">
  <defs>
    <clipPath id="clip-path">
      <rect id="Rectangle_2750" data-name="Rectangle 2750" width="20" height="20" transform="translate(664 1906.369)" fill="#00c685"/>
    </clipPath>
  </defs>
  <g id="up-icon" transform="translate(-664 -1906.369)" clip-path="url(#clip-path)">
    <path id="Path_10359" data-name="Path 10359" d="M1.688,1.125H-1.687a.814.814,0,0,1-.6-.246.814.814,0,0,1-.246-.6V-6.75H-6.187a.771.771,0,0,1-.773-.527.783.783,0,0,1,.176-.914L-.6-14.379a.747.747,0,0,1,1.2,0L6.785-8.191a.783.783,0,0,1,.176.914.771.771,0,0,1-.773.527H2.531V.281a.814.814,0,0,1-.246.6A.814.814,0,0,1,1.688,1.125Z" transform="translate(674.035 1923.046)" fill="#00c685"/>
  </g>
</svg>
