<svg xmlns="http://www.w3.org/2000/svg" xmlns:xlink="http://www.w3.org/1999/xlink" width="60" height="60" viewBox="0 0 60 60">
  <defs>
    <clipPath id="clip-path">
      <rect id="Rectangle_2752" data-name="Rectangle 2752" width="60" height="60" fill="#bdbdbd"/>
    </clipPath>
  </defs>
  <g id="upload-large-icon" clip-path="url(#clip-path)">
    <path id="Path_10346" data-name="Path 10346" d="M3.375-32.906a2.441,2.441,0,0,0,.738,1.793,2.441,2.441,0,0,0,1.793.738H20.25V4.219a2.441,2.441,0,0,1-.738,1.793,2.441,2.441,0,0,1-1.793.738H-17.719a2.441,2.441,0,0,1-1.793-.738,2.441,2.441,0,0,1-.738-1.793V-44.719a2.441,2.441,0,0,1,.738-1.793,2.441,2.441,0,0,1,1.793-.738H3.375ZM10.23-10.125a1.565,1.565,0,0,0,1.582-1.055,1.463,1.463,0,0,0-.422-1.793L1.266-23.1A1.726,1.726,0,0,0,0-23.625a1.726,1.726,0,0,0-1.266.527L-11.391-12.973a1.463,1.463,0,0,0-.422,1.793,1.565,1.565,0,0,0,1.582,1.055h6.855v8.438A1.643,1.643,0,0,0-2.9-.475,1.643,1.643,0,0,0-1.687,0H1.688A1.643,1.643,0,0,0,2.9-.475a1.643,1.643,0,0,0,.475-1.213v-8.437Zm9.281-26.051a2.441,2.441,0,0,1,.738,1.793v.633H6.75v-13.5h.633a2.441,2.441,0,0,1,1.793.738Z" transform="translate(30.25 50.25)" fill="#bdbdbd"/>
  </g>
</svg>
