<svg xmlns="http://www.w3.org/2000/svg" xmlns:xlink="http://www.w3.org/1999/xlink" width="40" height="40" viewBox="0 0 40 40">
  <defs>
    <clipPath id="clip-path">
      <rect id="Rectangle_2948" data-name="Rectangle 2948" width="40" height="40" transform="translate(664 1905)" fill="#9e9e9e"/>
    </clipPath>
  </defs>
  <g id="water-icon" transform="translate(-664 -1905)" clip-path="url(#clip-path)">
    <path id="Path_10303" data-name="Path 10303" d="M15.313-1.75a.387.387,0,0,1,.438.438v.875A.387.387,0,0,1,15.313,0,8.974,8.974,0,0,1,10.5-1.531,9.161,9.161,0,0,1,5.25-.055,9.161,9.161,0,0,1,0-1.531,9.112,9.112,0,0,1-5.223-.055,9.375,9.375,0,0,1-10.5-1.531,8.974,8.974,0,0,1-15.312,0a.387.387,0,0,1-.437-.437v-.875a.387.387,0,0,1,.438-.437,7.055,7.055,0,0,0,4.266-1.531.793.793,0,0,1,1.094,0A7.371,7.371,0,0,0-5.223-1.8,7.146,7.146,0,0,0-.547-3.281a.731.731,0,0,1,1.094,0A7.371,7.371,0,0,0,5.277-1.8,7.146,7.146,0,0,0,9.953-3.281a.731.731,0,0,1,1.094,0A7.055,7.055,0,0,0,15.313-1.75Zm0-5.852q.438.055.438.438v.875q0,.492-.437.438A8.974,8.974,0,0,1,10.5-7.383,8.9,8.9,0,0,1,5.3-5.906,9.424,9.424,0,0,1,0-7.383,8.9,8.9,0,0,1-5.2-5.906a9.424,9.424,0,0,1-5.3-1.477,8.974,8.974,0,0,1-4.812,1.531q-.438.055-.437-.437v-.875q0-.383.438-.437a7.055,7.055,0,0,0,4.266-1.531.793.793,0,0,1,1.094,0,7.371,7.371,0,0,0,4.73,1.477A7.146,7.146,0,0,0-.547-9.133a.793.793,0,0,1,1.094,0,7.371,7.371,0,0,0,4.73,1.477A7.146,7.146,0,0,0,9.953-9.133a.793.793,0,0,1,1.094,0A7.055,7.055,0,0,0,15.313-7.6Zm0-5.8q.438,0,.438.383v.875q0,.492-.437.492A9.64,9.64,0,0,1,10.5-13.18,9.161,9.161,0,0,1,5.25-11.7,9.161,9.161,0,0,1,0-13.18,9.112,9.112,0,0,1-5.223-11.7,9.375,9.375,0,0,1-10.5-13.18a9.64,9.64,0,0,1-4.812,1.531q-.438,0-.437-.492v-.875q0-.383.438-.383a7.337,7.337,0,0,0,4.266-1.586.793.793,0,0,1,1.094,0,7.083,7.083,0,0,0,4.73,1.5,7.261,7.261,0,0,0,4.676-1.5.793.793,0,0,1,1.094,0,7.083,7.083,0,0,0,4.73,1.5,7.261,7.261,0,0,0,4.676-1.5.793.793,0,0,1,1.094,0A7.337,7.337,0,0,0,15.313-13.4Zm0-5.852a.387.387,0,0,1,.438.438v.875a.387.387,0,0,1-.437.438A8.974,8.974,0,0,1,10.5-19.031a9.161,9.161,0,0,1-5.25,1.477A9.161,9.161,0,0,1,0-19.031a9.112,9.112,0,0,1-5.223,1.477A9.375,9.375,0,0,1-10.5-19.031,8.974,8.974,0,0,1-15.312-17.5a.387.387,0,0,1-.437-.437v-.875a.387.387,0,0,1,.438-.437,7.055,7.055,0,0,0,4.266-1.531.731.731,0,0,1,1.094,0A7.371,7.371,0,0,0-5.223-19.3,7.146,7.146,0,0,0-.547-20.781a.731.731,0,0,1,1.094,0A7.371,7.371,0,0,0,5.277-19.3a7.146,7.146,0,0,0,4.676-1.477.731.731,0,0,1,1.094,0A7.055,7.055,0,0,0,15.313-19.25Z" transform="translate(684 1936)" fill="#9e9e9e"/>
  </g>
</svg>
