<svg xmlns="http://www.w3.org/2000/svg" width="20.344" height="20.344" viewBox="0 0 20.344 20.344">
  <path id="check" d="M-7.2-15.073A9.8,9.8,0,0,1,0-18.047a9.8,9.8,0,0,1,7.2,2.974,9.8,9.8,0,0,1,2.974,7.2A9.8,9.8,0,0,1,7.2-.677,9.8,9.8,0,0,1,0,2.3,9.8,9.8,0,0,1-7.2-.677a9.8,9.8,0,0,1-2.974-7.2A9.8,9.8,0,0,1-7.2-15.073Zm13,1.395a7.906,7.906,0,0,0-5.8-2.4,7.906,7.906,0,0,0-5.8,2.4,7.906,7.906,0,0,0-2.4,5.8,7.906,7.906,0,0,0,2.4,5.8A7.906,7.906,0,0,0,0,.328a7.906,7.906,0,0,0,5.8-2.4,7.906,7.906,0,0,0,2.4-5.8A7.906,7.906,0,0,0,5.8-13.679Zm-.062,2.933a.421.421,0,0,1,0,.7L-1.312-3.035a.421.421,0,0,1-.7,0L-5.742-6.768a.421.421,0,0,1,0-.7l.943-.943a.452.452,0,0,1,.7,0l2.42,2.5,5.824-5.783q.328-.328.7.041Z" transform="translate(10.172 18.047)" fill="#54b188"/>
</svg>
