<svg xmlns="http://www.w3.org/2000/svg" width="26" height="22.75" viewBox="0 0 26 22.75">
  <path id="comment-bg" d="M-9.141-18.027a14.1,14.1,0,0,1,9.191-3.1,14.1,14.1,0,0,1,9.191,3.1,9.332,9.332,0,0,1,3.809,7.465A9.332,9.332,0,0,1,9.242-3.1,14.1,14.1,0,0,1,.051,0,15.437,15.437,0,0,1-5.383-.965a11.364,11.364,0,0,1-7.16,2.59.338.338,0,0,1-.2-.076.5.5,0,0,1-.152-.178.369.369,0,0,1,.076-.432q.178-.178.609-.711A14.481,14.481,0,0,0-11.07-1.549,10.238,10.238,0,0,0-10.055-3.91a9.146,9.146,0,0,1-2.895-6.652A9.332,9.332,0,0,1-9.141-18.027ZM-7.592-9.42a1.562,1.562,0,0,0,1.143.482A1.562,1.562,0,0,0-5.307-9.42a1.562,1.562,0,0,0,.482-1.143,1.562,1.562,0,0,0-.482-1.143,1.562,1.562,0,0,0-1.143-.482,1.562,1.562,0,0,0-1.143.482,1.562,1.562,0,0,0-.482,1.143A1.562,1.562,0,0,0-7.592-9.42Zm6.5,0a1.562,1.562,0,0,0,1.143.482A1.562,1.562,0,0,0,1.193-9.42a1.562,1.562,0,0,0,.482-1.143,1.562,1.562,0,0,0-.482-1.143,1.562,1.562,0,0,0-1.143-.482,1.562,1.562,0,0,0-1.143.482,1.562,1.562,0,0,0-.482,1.143A1.562,1.562,0,0,0-1.092-9.42Zm6.5,0a1.562,1.562,0,0,0,1.143.482A1.562,1.562,0,0,0,7.693-9.42a1.562,1.562,0,0,0,.482-1.143,1.562,1.562,0,0,0-.482-1.143,1.562,1.562,0,0,0-1.143-.482,1.562,1.562,0,0,0-1.143.482,1.562,1.562,0,0,0-.482,1.143A1.562,1.562,0,0,0,5.408-9.42Z" transform="translate(12.949 21.125)" fill="#9e9e9e"/>
</svg>
