<svg xmlns="http://www.w3.org/2000/svg" width="22.011" height="19.25" viewBox="0 0 22.011 19.25">
  <path id="comment" d="M-5.736-9.9a1.321,1.321,0,0,1,.967-.408A1.321,1.321,0,0,1-3.8-9.9a1.321,1.321,0,0,1,.408.967,1.321,1.321,0,0,1-.408.967,1.321,1.321,0,0,1-.967.408,1.321,1.321,0,0,1-.967-.408,1.321,1.321,0,0,1-.408-.967A1.321,1.321,0,0,1-5.736-9.9Zm4.813,0a1.321,1.321,0,0,1,.967-.408A1.321,1.321,0,0,1,1.01-9.9a1.321,1.321,0,0,1,.408.967,1.321,1.321,0,0,1-.408.967,1.321,1.321,0,0,1-.967.408,1.321,1.321,0,0,1-.967-.408,1.321,1.321,0,0,1-.408-.967A1.321,1.321,0,0,1-.924-9.9Zm4.813,0a1.321,1.321,0,0,1,.967-.408,1.321,1.321,0,0,1,.967.408,1.321,1.321,0,0,1,.408.967,1.321,1.321,0,0,1-.408.967,1.321,1.321,0,0,1-.967.408,1.321,1.321,0,0,1-.967-.408,1.321,1.321,0,0,1-.408-.967A1.321,1.321,0,0,1,3.889-9.9Zm-11.623-5.35A11.933,11.933,0,0,1,.043-17.875,11.933,11.933,0,0,1,7.82-15.254a7.9,7.9,0,0,1,3.223,6.316A7.9,7.9,0,0,1,7.82-2.621,11.933,11.933,0,0,1,.043,0a13.655,13.655,0,0,1-4-.6A10.151,10.151,0,0,1-9.926,1.375a.942.942,0,0,1-.945-.623.963.963,0,0,1,.172-1.1q.086-.086.408-.451a9.205,9.205,0,0,0,.816-1.16A9.509,9.509,0,0,0-8.68-3.523a7.682,7.682,0,0,1-2.277-5.414A7.9,7.9,0,0,1-7.734-15.254ZM.043-2.062a10.042,10.042,0,0,0,6.316-2.02A5.975,5.975,0,0,0,8.98-8.937a5.975,5.975,0,0,0-2.621-4.855,10.042,10.042,0,0,0-6.316-2.02,10.042,10.042,0,0,0-6.316,2.02A5.975,5.975,0,0,0-8.895-8.937a5.673,5.673,0,0,0,1.719,4L-6.316-4l-.43,1.2a14.168,14.168,0,0,1-.859,1.762A8.752,8.752,0,0,0-5.156-2.32l.859-.559.988.3A11.065,11.065,0,0,0,.043-2.062Z" transform="translate(10.968 17.875)" fill="#9e9e9e"/>
</svg>
