<svg xmlns="http://www.w3.org/2000/svg" width="21.313" height="21.313" viewBox="0 0 21.313 21.313">
  <path id="cross" d="M-7.541-15.791A10.271,10.271,0,0,1,0-18.906a10.271,10.271,0,0,1,7.541,3.115A10.271,10.271,0,0,1,10.656-8.25,10.271,10.271,0,0,1,7.541-.709,10.271,10.271,0,0,1,0,2.406,10.271,10.271,0,0,1-7.541-.709,10.271,10.271,0,0,1-10.656-8.25,10.271,10.271,0,0,1-7.541-15.791ZM-6.08-2.17A8.282,8.282,0,0,0,0,.344,8.282,8.282,0,0,0,6.08-2.17,8.282,8.282,0,0,0,8.594-8.25,8.282,8.282,0,0,0,6.08-14.33,8.282,8.282,0,0,0,0-16.844,8.282,8.282,0,0,0-6.08-14.33,8.282,8.282,0,0,0-8.594-8.25,8.282,8.282,0,0,0-6.08-2.17ZM4.383-10.914,1.719-8.25,4.383-5.586a.474.474,0,0,1,0,.73l-.988.988a.474.474,0,0,1-.73,0L0-6.531-2.664-3.867a.474.474,0,0,1-.73,0l-.988-.988a.474.474,0,0,1,0-.73L-1.719-8.25l-2.664-2.664a.474.474,0,0,1,0-.73l.988-.988a.474.474,0,0,1,.73,0L0-9.969l2.664-2.664a.474.474,0,0,1,.73,0l.988.988A.474.474,0,0,1,4.383-10.914Z" transform="translate(10.656 18.906)" fill="#ec5b44"/>
</svg>
