<svg xmlns="http://www.w3.org/2000/svg" width="22" height="22" viewBox="0 0 22 22">
  <path id="like" d="M-6.51-9.625a1,1,0,0,1,.73.3,1,1,0,0,1,.3.73V1.719a1,1,0,0,1-.3.73,1,1,0,0,1-.73.3H-9.947a1,1,0,0,1-.73-.3,1,1,0,0,1-.3-.73V-8.594a1,1,0,0,1,.3-.73,1,1,0,0,1,.73-.3ZM-8.959.73a1,1,0,0,0,.73.3A1,1,0,0,0-7.5.73,1,1,0,0,0-7.2,0a1,1,0,0,0-.3-.73,1,1,0,0,0-.73-.3,1,1,0,0,0-.73.3,1,1,0,0,0-.3.73A1,1,0,0,0-8.959.73Zm14.48-16.5a5.468,5.468,0,0,1-.687,2.428,8.835,8.835,0,0,0-.73,1.654h4.34a2.486,2.486,0,0,1,1.826.752,2.389,2.389,0,0,1,.752,1.74,2.85,2.85,0,0,1-.816,2.105h-.043a3.309,3.309,0,0,1,.258,1.719,3.226,3.226,0,0,1-.645,1.719,3.262,3.262,0,0,1,.043,1.74A3.517,3.517,0,0,1,9.088-.43,2.334,2.334,0,0,1,8.83,1.461a2.57,2.57,0,0,1-1.332.9,6.4,6.4,0,0,1-1.611.344q-.709.043-1.955.043H3.8A13.319,13.319,0,0,1-1.354,1.375,6.16,6.16,0,0,0-3.588.688a.5.5,0,0,1-.365-.15A.5.5,0,0,1-4.1.172v-9.2a.408.408,0,0,1,.172-.344,21.4,21.4,0,0,0,2-2.557,15.2,15.2,0,0,1,1.826-2.3A6.1,6.1,0,0,0,.967-16.758q.6-2.492,1.461-2.492a3.975,3.975,0,0,1,.924.107,3.567,3.567,0,0,1,.988.43,2.209,2.209,0,0,1,.859,1.1A4.791,4.791,0,0,1,5.521-15.77Z" transform="translate(10.979 19.25)" fill="#c05555"/>
</svg>
