<svg xmlns="http://www.w3.org/2000/svg" width="12" height="16" viewBox="0 0 12 16">
  <path id="location" d="M-4.25-12.25A5.786,5.786,0,0,1,0-14a5.786,5.786,0,0,1,4.25,1.75A5.786,5.786,0,0,1,6-8q0,.5-.031.859a3.35,3.35,0,0,1-.219.859q-.187.5-.344.844T4.781-4.312q-.469.781-.828,1.344T2.766-1.094Q1.937.219,1.281,1.281A1.41,1.41,0,0,1,0,2a1.41,1.41,0,0,1-1.281-.719Q-1.937.219-2.766-1.094T-3.953-2.969q-.359-.562-.828-1.344t-.625-1.125q-.156-.344-.344-.844a3.35,3.35,0,0,1-.219-.859Q-6-7.5-6-8A5.786,5.786,0,0,1-4.25-12.25ZM0,.5q.625-1,1.344-2.125t1.078-1.7l.766-1.234q.406-.656.578-.984t.359-.7a3.215,3.215,0,0,0,.25-.625,4.1,4.1,0,0,0,.094-.516A5.271,5.271,0,0,0,4.5-8a4.34,4.34,0,0,0-1.312-3.187A4.34,4.34,0,0,0,0-12.5a4.34,4.34,0,0,0-3.187,1.313A4.34,4.34,0,0,0-4.5-8a5.271,5.271,0,0,0,.031.609,4.732,4.732,0,0,0,.094.531,3.058,3.058,0,0,0,.25.641q.188.375.375.7t.594.984L-2.391-3.3q.359.578,1.063,1.688T0,.5ZM-1.766-6.234A2.407,2.407,0,0,1-2.5-8a2.407,2.407,0,0,1,.734-1.766A2.407,2.407,0,0,1,0-10.5a2.407,2.407,0,0,1,1.766.734A2.407,2.407,0,0,1,2.5-8a2.407,2.407,0,0,1-.734,1.766A2.407,2.407,0,0,1,0-5.5,2.407,2.407,0,0,1-1.766-6.234Z" transform="translate(6 14)" fill="#757575"/>
</svg>
