<svg xmlns="http://www.w3.org/2000/svg" width="30.031" height="30.031" viewBox="0 0 30.031 30.031">
  <path id="play-icon" d="M7.023-12.715a1.38,1.38,0,0,1,.727,1.271,1.38,1.38,0,0,1-.727,1.271L-3.633-4.057a1.723,1.723,0,0,1-1.029.151,1.379,1.379,0,0,1-.817-.484,1.406,1.406,0,0,1-.333-.938V-17.922a1.38,1.38,0,0,1,.727-1.271,1.351,1.351,0,0,1,1.453,0Zm3.6-9.536a14.473,14.473,0,0,1,4.39,10.626A14.473,14.473,0,0,1,10.626-1,14.473,14.473,0,0,1,0,3.391,14.473,14.473,0,0,1-10.626-1a14.473,14.473,0,0,1-4.39-10.626,14.473,14.473,0,0,1,4.39-10.626A14.473,14.473,0,0,1,0-26.641,14.473,14.473,0,0,1,10.626-22.251ZM-8.567-20.192a11.671,11.671,0,0,0-3.542,8.567A11.671,11.671,0,0,0-8.567-3.058,11.671,11.671,0,0,0,0,.484,11.671,11.671,0,0,0,8.567-3.058a11.671,11.671,0,0,0,3.542-8.567,11.671,11.671,0,0,0-3.542-8.567A11.671,11.671,0,0,0,0-23.734,11.671,11.671,0,0,0-8.567-20.192Z" transform="translate(15.016 26.641)" fill="#fff"/>
</svg>
