<svg xmlns="http://www.w3.org/2000/svg" xmlns:xlink="http://www.w3.org/1999/xlink" width="48" height="48" viewBox="0 0 48 48">
  <defs>
    <clipPath id="clip-path">
      <rect id="Rectangle_2611" data-name="Rectangle 2611" width="48" height="48" transform="translate(664 1905)" fill="#9e9e9e"/>
    </clipPath>
  </defs>
  <g id="Challenges-icon" transform="translate(-664 -1905)" clip-path="url(#clip-path)">
    <path id="Path_10352" data-name="Path 10352" d="M14.438-14.055a.97.97,0,0,1,1.148.52,1.056,1.056,0,0,1-.109,1.285,18.294,18.294,0,0,1-2.734,2.707,21.306,21.306,0,0,1-2.734,1.914A19.845,19.845,0,0,1,7.574-6.453q-1.23.492-1.7.629a6.926,6.926,0,0,1-.793.191A46,46,0,0,1-2.406-4.594,19.111,19.111,0,0,0-12.25-1.312V3.063a.387.387,0,0,1-.437.438h-.875A.387.387,0,0,1-14,3.063V-19.414a2.6,2.6,0,0,1-1.258-.957,2.517,2.517,0,0,1-.492-1.5,2.531,2.531,0,0,1,.766-1.859,2.531,2.531,0,0,1,1.859-.766,2.531,2.531,0,0,1,1.859.766,2.531,2.531,0,0,1,.766,1.859,2.449,2.449,0,0,1-.82,1.859A19.471,19.471,0,0,1,.164-17.5a42.471,42.471,0,0,0,5.3,2.3,23.322,23.322,0,0,0,4.266,1.121,17.91,17.91,0,0,0,2.816.219A11.157,11.157,0,0,0,14.438-14.055Zm-26.961-8.422a.728.728,0,0,0-.6-.273.852.852,0,0,0-.629.246.852.852,0,0,0-.246.629.852.852,0,0,0,.246.629.852.852,0,0,0,.629.246.852.852,0,0,0,.629-.246.852.852,0,0,0,.246-.629A.728.728,0,0,0-12.523-22.477ZM4.758-7.328q.492-.109,1.34-.383a20.621,20.621,0,0,0,3.035-1.5,17.788,17.788,0,0,0,3.883-2.926q-5.852.273-13.672-3.828Q-6.891-19.25-12.25-18.047V-3.391A21.6,21.6,0,0,1-2.516-6.344,48.464,48.464,0,0,0,4.758-7.328Z" transform="translate(687.75 1939.5)" fill="#9e9e9e"/>
  </g>
</svg>
