<svg xmlns="http://www.w3.org/2000/svg" xmlns:xlink="http://www.w3.org/1999/xlink" width="48" height="48" viewBox="0 0 48 48">
  <defs>
    <clipPath id="clip-path">
      <rect id="Rectangle_2611" data-name="Rectangle 2611" width="48" height="48" transform="translate(664 1905)" fill="#9e9e9e"/>
    </clipPath>
  </defs>
  <g id="Clubs-icon" transform="translate(-664 -1905)" clip-path="url(#clip-path)">
    <path id="Path_10350" data-name="Path 10350" d="M15.313-13.508A4.168,4.168,0,0,1,12.25-12.25a4.213,4.213,0,0,1-3.09-1.285,4.213,4.213,0,0,1-1.285-3.09,4.213,4.213,0,0,1,1.285-3.09A4.213,4.213,0,0,1,12.25-21a4.213,4.213,0,0,1,3.09,1.285,4.213,4.213,0,0,1,1.285,3.09A4.258,4.258,0,0,1,15.313-13.508Zm-1.2-4.977a2.531,2.531,0,0,0-1.859-.766,2.531,2.531,0,0,0-1.859.766,2.531,2.531,0,0,0-.766,1.859,2.531,2.531,0,0,0,.766,1.859A2.531,2.531,0,0,0,12.25-14a2.531,2.531,0,0,0,1.859-.766,2.531,2.531,0,0,0,.766-1.859A2.531,2.531,0,0,0,14.109-18.484ZM4.32-12.3A5.894,5.894,0,0,1,0-10.5a5.894,5.894,0,0,1-4.32-1.8,5.894,5.894,0,0,1-1.8-4.32,5.894,5.894,0,0,1,1.8-4.32A5.894,5.894,0,0,1,0-22.75a5.894,5.894,0,0,1,4.32,1.8,5.894,5.894,0,0,1,1.8,4.32A5.894,5.894,0,0,1,4.32-12.3ZM3.063-19.687A4.082,4.082,0,0,0,0-21a4.213,4.213,0,0,0-3.09,1.285,4.213,4.213,0,0,0-1.285,3.09,4.213,4.213,0,0,0,1.285,3.09A4.213,4.213,0,0,0,0-12.25a4.213,4.213,0,0,0,3.09-1.285,4.213,4.213,0,0,0,1.285-3.09A4.082,4.082,0,0,0,3.063-19.687ZM13.344-10.5A3.914,3.914,0,0,1,16.27-9.215a4.308,4.308,0,0,1,1.23,3.09.852.852,0,0,1-.246.629.852.852,0,0,1-.629.246A.852.852,0,0,1,16-5.5a.852.852,0,0,1-.246-.629,2.633,2.633,0,0,0-.711-1.859,2.236,2.236,0,0,0-1.7-.766H11.156a2.477,2.477,0,0,0-.875.164,8.728,8.728,0,0,0-1.367-1.2,3.894,3.894,0,0,1,2.242-.711ZM-9.187-13.508A4.168,4.168,0,0,1-12.25-12.25a4.213,4.213,0,0,1-3.09-1.285,4.213,4.213,0,0,1-1.285-3.09,4.213,4.213,0,0,1,1.285-3.09A4.213,4.213,0,0,1-12.25-21a4.213,4.213,0,0,1,3.09,1.285,4.213,4.213,0,0,1,1.285,3.09A4.258,4.258,0,0,1-9.187-13.508Zm-1.2-4.977a2.531,2.531,0,0,0-1.859-.766,2.531,2.531,0,0,0-1.859.766,2.531,2.531,0,0,0-.766,1.859,2.531,2.531,0,0,0,.766,1.859A2.531,2.531,0,0,0-12.25-14a2.531,2.531,0,0,0,1.859-.766,2.531,2.531,0,0,0,.766-1.859A2.531,2.531,0,0,0-10.391-18.484ZM4.375-9.406a5.634,5.634,0,0,1,5.031,2.57,6.031,6.031,0,0,1,1.094,3.5V-.875A2.531,2.531,0,0,1,9.734.984a2.531,2.531,0,0,1-1.859.766H-7.875A2.531,2.531,0,0,1-9.734.984,2.531,2.531,0,0,1-10.5-.875V-3.336a6.031,6.031,0,0,1,1.094-3.5,5.634,5.634,0,0,1,5.031-2.57A8.079,8.079,0,0,1-2.3-9.078,8.73,8.73,0,0,0,0-8.75a8.73,8.73,0,0,0,2.3-.328A8.079,8.079,0,0,1,4.375-9.406ZM8.75-.875V-3.336a4.442,4.442,0,0,0-.766-2.516,4.049,4.049,0,0,0-3.609-1.8,7.968,7.968,0,0,0-1.887.328A9.618,9.618,0,0,1,0-7a9.618,9.618,0,0,1-2.488-.328,7.968,7.968,0,0,0-1.887-.328,4.049,4.049,0,0,0-3.609,1.8A4.442,4.442,0,0,0-8.75-3.336V-.875A.852.852,0,0,0-8.5-.246.852.852,0,0,0-7.875,0H7.875A.852.852,0,0,0,8.5-.246.852.852,0,0,0,8.75-.875ZM-8.914-9.789a8.728,8.728,0,0,0-1.367,1.2,2.477,2.477,0,0,0-.875-.164h-2.187a2.236,2.236,0,0,0-1.7.766,2.633,2.633,0,0,0-.711,1.859A.852.852,0,0,1-16-5.5a.852.852,0,0,1-.629.246.852.852,0,0,1-.629-.246.852.852,0,0,1-.246-.629,4.308,4.308,0,0,1,1.23-3.09A3.914,3.914,0,0,1-13.344-10.5h2.188A3.894,3.894,0,0,1-8.914-9.789Z" transform="translate(688.5 1939.75)" fill="#9e9e9e"/>
  </g>
</svg>
