<svg xmlns="http://www.w3.org/2000/svg" xmlns:xlink="http://www.w3.org/1999/xlink" width="48" height="48" viewBox="0 0 48 48">
  <defs>
    <clipPath id="clip-path">
      <rect id="Rectangle_2611" data-name="Rectangle 2611" width="48" height="48" transform="translate(664 1905)" fill="#9e9e9e"/>
    </clipPath>
  </defs>
  <g id="Dashboard-icon" transform="translate(-664 -1905)" clip-path="url(#clip-path)">
    <path id="Path_10347" data-name="Path 10347" d="M-9.57-7.93A1.266,1.266,0,0,1-9.187-7a1.266,1.266,0,0,1-.383.93,1.266,1.266,0,0,1-.93.383,1.266,1.266,0,0,1-.93-.383A1.266,1.266,0,0,1-11.812-7a1.266,1.266,0,0,1,.383-.93,1.266,1.266,0,0,1,.93-.383A1.266,1.266,0,0,1-9.57-7.93ZM.93-16.57a1.266,1.266,0,0,1-.93.383,1.266,1.266,0,0,1-.93-.383,1.266,1.266,0,0,1-.383-.93,1.266,1.266,0,0,1,.383-.93A1.266,1.266,0,0,1,0-18.812a1.266,1.266,0,0,1,.93.383,1.266,1.266,0,0,1,.383.93A1.266,1.266,0,0,1,.93-16.57ZM3.5-5.25A3.382,3.382,0,0,1,2.488-2.762,3.382,3.382,0,0,1,0-1.75,3.382,3.382,0,0,1-2.488-2.762,3.382,3.382,0,0,1-3.5-5.25a3.337,3.337,0,0,1,.711-2.078l-5.3-6.562a.751.751,0,0,1,.082-1.23.755.755,0,0,1,1.23.137l5.359,6.563A3.135,3.135,0,0,1,0-8.75,3.382,3.382,0,0,1,2.488-7.738,3.382,3.382,0,0,1,3.5-5.25ZM1.2-3.992A1.729,1.729,0,0,0,1.75-5.25a1.682,1.682,0,0,0-.52-1.23A1.682,1.682,0,0,0,0-7a1.682,1.682,0,0,0-1.23.52,1.682,1.682,0,0,0-.52,1.23,1.682,1.682,0,0,0,.52,1.23A1.682,1.682,0,0,0,0-3.5,1.637,1.637,0,0,0,1.2-3.992ZM15.75-7A15.492,15.492,0,0,1,13.617.93a1.611,1.611,0,0,1-1.477.82H-12.141A1.611,1.611,0,0,1-13.617.93,15.492,15.492,0,0,1-15.75-7a15.17,15.17,0,0,1,4.621-11.129A15.17,15.17,0,0,1,0-22.75a15.17,15.17,0,0,1,11.129,4.621A15.17,15.17,0,0,1,15.75-7ZM14-7a13.488,13.488,0,0,0-4.1-9.9A13.488,13.488,0,0,0,0-21a13.488,13.488,0,0,0-9.9,4.1A13.488,13.488,0,0,0-14-7,13.766,13.766,0,0,0-12.086.055L12.141,0A13.78,13.78,0,0,0,14-7ZM6.508-15.367a1.266,1.266,0,0,1,.93-.383,1.266,1.266,0,0,1,.93.383,1.266,1.266,0,0,1,.383.93,1.266,1.266,0,0,1-.383.93,1.266,1.266,0,0,1-.93.383,1.266,1.266,0,0,1-.93-.383,1.266,1.266,0,0,1-.383-.93A1.266,1.266,0,0,1,6.508-15.367ZM9.57-7.93a1.266,1.266,0,0,1,.93-.383,1.266,1.266,0,0,1,.93.383,1.266,1.266,0,0,1,.383.93,1.266,1.266,0,0,1-.383.93,1.266,1.266,0,0,1-.93.383,1.266,1.266,0,0,1-.93-.383A1.266,1.266,0,0,1,9.188-7,1.266,1.266,0,0,1,9.57-7.93Z" transform="translate(687.75 1939.75)" fill="#9e9e9e"/>
  </g>
</svg>
