<svg xmlns="http://www.w3.org/2000/svg" xmlns:xlink="http://www.w3.org/1999/xlink" width="48" height="48" viewBox="0 0 48 48">
  <defs>
    <clipPath id="clip-path">
      <rect id="Rectangle_2611" data-name="Rectangle 2611" width="48" height="48" transform="translate(664 1905)" fill="#9e9e9e"/>
    </clipPath>
  </defs>
  <g id="Event-icon" transform="translate(-664 -1905)" clip-path="url(#clip-path)">
    <path id="Path_10351" data-name="Path 10351" d="M9.625-21a2.531,2.531,0,0,1,1.859.766,2.531,2.531,0,0,1,.766,1.859V.875a2.531,2.531,0,0,1-.766,1.859A2.531,2.531,0,0,1,9.625,3.5H-9.625a2.531,2.531,0,0,1-1.859-.766A2.531,2.531,0,0,1-12.25.875v-19.25a2.531,2.531,0,0,1,.766-1.859A2.531,2.531,0,0,1-9.625-21H-7v-2.844a.58.58,0,0,1,.656-.656h.438a.58.58,0,0,1,.656.656V-21H5.25v-2.844a.58.58,0,0,1,.656-.656h.438A.58.58,0,0,1,7-23.844V-21Zm-19.25,1.75a.852.852,0,0,0-.629.246.852.852,0,0,0-.246.629v2.625h21v-2.625A.852.852,0,0,0,10.254-19a.852.852,0,0,0-.629-.246Zm19.25,21A.842.842,0,0,0,10.5.875V-14h-21V.875a.852.852,0,0,0,.246.629.852.852,0,0,0,.629.246ZM-4.156-7H-6.344A.58.58,0,0,1-7-7.656V-9.844a.58.58,0,0,1,.656-.656h2.188a.58.58,0,0,1,.656.656v2.188A.58.58,0,0,1-4.156-7Zm5.25,0H-1.094a.58.58,0,0,1-.656-.656V-9.844a.58.58,0,0,1,.656-.656H1.094a.58.58,0,0,1,.656.656v2.188A.58.58,0,0,1,1.094-7Zm5.25,0H4.156A.58.58,0,0,1,3.5-7.656V-9.844a.58.58,0,0,1,.656-.656H6.344A.58.58,0,0,1,7-9.844v2.188A.58.58,0,0,1,6.344-7ZM1.094-1.75H-1.094a.58.58,0,0,1-.656-.656V-4.594a.58.58,0,0,1,.656-.656H1.094a.58.58,0,0,1,.656.656v2.188A.58.58,0,0,1,1.094-1.75Zm-5.25,0H-6.344A.58.58,0,0,1-7-2.406V-4.594a.58.58,0,0,1,.656-.656h2.188a.58.58,0,0,1,.656.656v2.188A.58.58,0,0,1-4.156-1.75Zm10.5,0H4.156A.58.58,0,0,1,3.5-2.406V-4.594a.58.58,0,0,1,.656-.656H6.344A.58.58,0,0,1,7-4.594v2.188A.58.58,0,0,1,6.344-1.75Z" transform="translate(688.25 1939.5)" fill="#9e9e9e"/>
  </g>
</svg>
