<svg xmlns="http://www.w3.org/2000/svg" xmlns:xlink="http://www.w3.org/1999/xlink" width="48" height="48" viewBox="0 0 48 48">
  <defs>
    <clipPath id="clip-path">
      <rect id="Rectangle_2611" data-name="Rectangle 2611" width="48" height="48" transform="translate(664 1905)" fill="#9e9e9e"/>
    </clipPath>
  </defs>
  <g id="Rides-icon" transform="translate(-664 -1905)" clip-path="url(#clip-path)">
    <path id="Path_10348" data-name="Path 10348" d="M10.582-14a6.746,6.746,0,0,1,4.977,2.105,6.688,6.688,0,0,1,2.023,5A6.755,6.755,0,0,1,15.477-2a6.838,6.838,0,0,1-4.949,2A6.611,6.611,0,0,1,5.605-2.078,6.818,6.818,0,0,1,3.582-7a6.733,6.733,0,0,1,2.57-5.414l-.711-1.094L-.082-5.633a.837.837,0,0,1-.711.383H-3.637A6.891,6.891,0,0,1-6.125-1.477,6.779,6.779,0,0,1-10.418,0a6.744,6.744,0,0,1-4.949-2.051A6.744,6.744,0,0,1-17.418-7a6.744,6.744,0,0,1,2.051-4.949A6.744,6.744,0,0,1-10.418-14a6.98,6.98,0,0,1,3.063.711l1.75-2.461H-8.668A.852.852,0,0,1-9.3-16a.852.852,0,0,1-.246-.629.852.852,0,0,1,.246-.629.852.852,0,0,1,.629-.246h4.594a.728.728,0,0,1,.328.082.537.537,0,0,1,.246.246.728.728,0,0,1,.082.328v1.094H4.02l-2.242-3.5H-1.449a.633.633,0,0,1-.465-.191.633.633,0,0,1-.191-.465v-.437a.633.633,0,0,1,.191-.465A.633.633,0,0,1-1.449-21H2.27a.887.887,0,0,1,.766.383l4.594,7.273A6.735,6.735,0,0,1,10.582-14Zm-21,12.25a5,5,0,0,0,3.035-.984A5.611,5.611,0,0,0-5.441-5.25h-5.852a.833.833,0,0,1-.793-.465.786.786,0,0,1,.082-.9l3.664-5.2a5.06,5.06,0,0,0-2.078-.437,5.063,5.063,0,0,0-3.719,1.531A5.063,5.063,0,0,0-15.668-7a5.063,5.063,0,0,0,1.531,3.719A5.063,5.063,0,0,0-10.418-1.75ZM-5.168-7a5.04,5.04,0,0,0-1.75-3.883L-9.6-7ZM-1.23-7l4.867-7H-4.73l-1.148,1.7A6.635,6.635,0,0,1-3.418-7ZM10.363-1.75A4.981,4.981,0,0,0,14.219-3.2,5.084,5.084,0,0,0,15.832-7,5.063,5.063,0,0,0,14.3-10.719a5.063,5.063,0,0,0-3.719-1.531,5.537,5.537,0,0,0-2.023.383l2.9,4.594a.564.564,0,0,1-.219.875l-.383.273a.564.564,0,0,1-.875-.219l-2.9-4.539a5.086,5.086,0,0,0-1.75,4.047A4.95,4.95,0,0,0,6.863-3.309,5.255,5.255,0,0,0,10.363-1.75Z" transform="translate(687.418 1940)" fill="#9e9e9e"/>
  </g>
</svg>
