<svg xmlns="http://www.w3.org/2000/svg" xmlns:xlink="http://www.w3.org/1999/xlink" width="48" height="48" viewBox="0 0 48 48">
  <defs>
    <clipPath id="clip-path">
      <rect id="Rectangle_2611" data-name="Rectangle 2611" width="48" height="48" transform="translate(664 1905)" fill="#9e9e9e"/>
    </clipPath>
  </defs>
  <g id="Settings-icon" transform="translate(-664 -1905)" clip-path="url(#clip-path)">
    <path id="Path_10354" data-name="Path 10354" d="M12.414-8.148a1.255,1.255,0,0,1,.6,1.531A13.382,13.382,0,0,1,9.844-1.2,1.18,1.18,0,0,1,8.258-.93l-1.8-1.039a8.943,8.943,0,0,1-2.3,1.313V1.422A1.171,1.171,0,0,1,3.117,2.68a12.883,12.883,0,0,1-6.234,0A1.171,1.171,0,0,1-4.156,1.422V-.656a8.943,8.943,0,0,1-2.3-1.312L-8.258-.93A1.18,1.18,0,0,1-9.844-1.2a13.382,13.382,0,0,1-3.172-5.414,1.255,1.255,0,0,1,.6-1.531l1.8-1.039a7.971,7.971,0,0,1-.109-1.312,7.971,7.971,0,0,1,.109-1.312l-1.8-1.039a1.255,1.255,0,0,1-.6-1.531A13.382,13.382,0,0,1-9.844-19.8a1.18,1.18,0,0,1,1.586-.273l1.8,1.039a8.943,8.943,0,0,1,2.3-1.312v-2.078A1.171,1.171,0,0,1-3.117-23.68a12.883,12.883,0,0,1,6.234,0,1.171,1.171,0,0,1,1.039,1.258v2.078a8.943,8.943,0,0,1,2.3,1.313l1.8-1.039a1.18,1.18,0,0,1,1.586.273,13.382,13.382,0,0,1,3.172,5.414,1.255,1.255,0,0,1-.6,1.531l-1.8,1.039a7.971,7.971,0,0,1,.109,1.313,7.971,7.971,0,0,1-.109,1.313ZM8.8-2.625a11.932,11.932,0,0,0,2.406-4.156L8.7-8.258A13.419,13.419,0,0,0,8.969-10.5,13.419,13.419,0,0,0,8.7-12.742l2.516-1.477A11.932,11.932,0,0,0,8.8-18.375L6.289-16.9a12.5,12.5,0,0,0-1.832-1.367,14.51,14.51,0,0,0-2.051-.875v-2.953A13.426,13.426,0,0,0,0-22.312a13.426,13.426,0,0,0-2.406.219v2.953a14.51,14.51,0,0,0-2.051.875A12.5,12.5,0,0,0-6.289-16.9L-8.8-18.375a11.932,11.932,0,0,0-2.406,4.156L-8.7-12.742A13.419,13.419,0,0,0-8.969-10.5,13.419,13.419,0,0,0-8.7-8.258l-2.516,1.477A11.932,11.932,0,0,0-8.8-2.625L-6.289-4.1A12.5,12.5,0,0,0-4.457-2.734a14.511,14.511,0,0,0,2.051.875V1.094A13.426,13.426,0,0,0,0,1.313a13.426,13.426,0,0,0,2.406-.219V-1.859a12.291,12.291,0,0,0,2.051-.9A17.389,17.389,0,0,0,6.289-4.1ZM-3.719-14.219A5.063,5.063,0,0,1,0-15.75a5.063,5.063,0,0,1,3.719,1.531A5.063,5.063,0,0,1,5.25-10.5,5.063,5.063,0,0,1,3.719-6.781,5.063,5.063,0,0,1,0-5.25,5.063,5.063,0,0,1-3.719-6.781,5.063,5.063,0,0,1-5.25-10.5,5.063,5.063,0,0,1-3.719-14.219Zm1.258,6.18A3.364,3.364,0,0,0,0-7,3.364,3.364,0,0,0,2.461-8.039,3.364,3.364,0,0,0,3.5-10.5a3.364,3.364,0,0,0-1.039-2.461A3.364,3.364,0,0,0,0-14a3.364,3.364,0,0,0-2.461,1.039A3.364,3.364,0,0,0-3.5-10.5,3.364,3.364,0,0,0-2.461-8.039Z" transform="translate(688.081 1939.063)" fill="#9e9e9e"/>
  </g>
</svg>
