<svg xmlns="http://www.w3.org/2000/svg" xmlns:xlink="http://www.w3.org/1999/xlink" width="48" height="48" viewBox="0 0 48 48">
  <defs>
    <clipPath id="clip-path">
      <rect id="Rectangle_2611" data-name="Rectangle 2611" width="48" height="48" transform="translate(664 1905)" fill="#9e9e9e"/>
    </clipPath>
  </defs>
  <g id="Transactions-icon" transform="translate(-664 -1905)" clip-path="url(#clip-path)">
    <path id="Path_10349" data-name="Path 10349" d="M1.477-6.617a2.647,2.647,0,0,1,.9.52,2.4,2.4,0,0,1,.629.848,2.53,2.53,0,0,1,.219,1.039,2.361,2.361,0,0,1-.684,1.7A2.423,2.423,0,0,1,.875-1.75V-.437A.387.387,0,0,1,.438,0H-.437A.387.387,0,0,1-.875-.437V-1.75a2.974,2.974,0,0,1-1.7-.656q-.438-.273-.055-.656l.656-.6a.433.433,0,0,1,.547-.055A1.257,1.257,0,0,0-.711-3.5H.82a.6.6,0,0,0,.465-.219.728.728,0,0,0,.191-.492.678.678,0,0,0-.492-.711l-2.461-.711a2.659,2.659,0,0,1-1.258-.93,2.4,2.4,0,0,1-.492-1.477,2.361,2.361,0,0,1,.684-1.7A2.423,2.423,0,0,1-.875-10.5v-1.312a.387.387,0,0,1,.438-.437H.438a.387.387,0,0,1,.438.438V-10.5a2.974,2.974,0,0,1,1.7.656q.438.273.055.656l-.656.6a.433.433,0,0,1-.547.055A1.257,1.257,0,0,0,.711-8.75H-.82a.6.6,0,0,0-.465.219.728.728,0,0,0-.191.492.678.678,0,0,0,.492.711ZM-6.562-19.25A.387.387,0,0,1-7-19.687v-.875A.387.387,0,0,1-6.562-21H-.437A.387.387,0,0,1,0-20.562v.875a.387.387,0,0,1-.437.438ZM0-16.187a.387.387,0,0,1-.437.438H-6.562A.387.387,0,0,1-7-16.187v-.875a.387.387,0,0,1,.438-.437H-.437A.387.387,0,0,1,0-17.062Zm9.734-2.953a2.531,2.531,0,0,1,.766,1.859V.875a2.531,2.531,0,0,1-.766,1.859A2.531,2.531,0,0,1,7.875,3.5H-7.875a2.531,2.531,0,0,1-1.859-.766A2.531,2.531,0,0,1-10.5.875v-22.75a2.534,2.534,0,0,1,.355-1.312,2.675,2.675,0,0,1,.957-.957A2.534,2.534,0,0,1-7.875-24.5H3.281a2.531,2.531,0,0,1,1.859.766ZM3.5-22.7v5.2H8.75a1.46,1.46,0,0,0-.273-.383L3.883-22.477A.811.811,0,0,0,3.5-22.7ZM8.75.875V-15.75H3.063a1.266,1.266,0,0,1-.93-.383,1.266,1.266,0,0,1-.383-.93V-22.75H-7.875A.852.852,0,0,0-8.5-22.5a.852.852,0,0,0-.246.629V.875A.852.852,0,0,0-8.5,1.5a.852.852,0,0,0,.629.246H7.875A.842.842,0,0,0,8.75.875Z" transform="translate(688.5 1939.5)" fill="#9e9e9e"/>
  </g>
</svg>
