<svg xmlns="http://www.w3.org/2000/svg" xmlns:xlink="http://www.w3.org/1999/xlink" width="48" height="48" viewBox="0 0 48 48">
  <defs>
    <clipPath id="clip-path">
      <rect id="Rectangle_2611" data-name="Rectangle 2611" width="48" height="48" transform="translate(664 1905)" fill="#9e9e9e"/>
    </clipPath>
  </defs>
  <g id="User-icon" transform="translate(-664 -1905)" clip-path="url(#clip-path)">
    <path id="Path_10353" data-name="Path 10353" d="M-9.625-20.07A13.118,13.118,0,0,1,0-24.062,13.073,13.073,0,0,1,9.6-20.1a13.073,13.073,0,0,1,3.965,9.6A13.073,13.073,0,0,1,9.6-.9,13.073,13.073,0,0,1,0,3.063,13.073,13.073,0,0,1-9.6-.9a13.073,13.073,0,0,1-3.965-9.6A13.028,13.028,0,0,1-9.625-20.07ZM7-.984V-1.75A3.364,3.364,0,0,0,5.961-4.211,3.364,3.364,0,0,0,3.5-5.25q-.109,0-1.23.3a8.722,8.722,0,0,1-2.27.3,8.722,8.722,0,0,1-2.27-.3q-1.121-.3-1.23-.3A3.364,3.364,0,0,0-5.961-4.211,3.364,3.364,0,0,0-7-1.75v.766a11.512,11.512,0,0,0,7,2.3A11.512,11.512,0,0,0,7-.984ZM8.7-2.516A11.411,11.411,0,0,0,11.813-10.5,11.373,11.373,0,0,0,8.34-18.84,11.373,11.373,0,0,0,0-22.312,11.373,11.373,0,0,0-8.34-18.84a11.373,11.373,0,0,0-3.473,8.34A11.411,11.411,0,0,0-8.7-2.516a5.371,5.371,0,0,1,1.777-3.2A4.984,4.984,0,0,1-3.5-7,5.909,5.909,0,0,1-2-6.7a6.98,6.98,0,0,0,2,.3,6.98,6.98,0,0,0,2-.3A5.909,5.909,0,0,1,3.5-7,4.984,4.984,0,0,1,6.918-5.715,5.371,5.371,0,0,1,8.7-2.516Zm-12.086-14A4.629,4.629,0,0,1,0-17.937a4.629,4.629,0,0,1,3.391,1.422,4.629,4.629,0,0,1,1.422,3.391A4.629,4.629,0,0,1,3.391-9.734,4.629,4.629,0,0,1,0-8.312,4.629,4.629,0,0,1-3.391-9.734a4.629,4.629,0,0,1-1.422-3.391A4.629,4.629,0,0,1-3.391-16.516Zm1.2,5.578A3.087,3.087,0,0,0,0-10.062a2.947,2.947,0,0,0,2.16-.9,2.947,2.947,0,0,0,.9-2.16,2.947,2.947,0,0,0-.9-2.16,2.947,2.947,0,0,0-2.16-.9,2.947,2.947,0,0,0-2.16.9,2.947,2.947,0,0,0-.9,2.16A3.087,3.087,0,0,0-2.187-10.937Z" transform="translate(687.563 1939.063)" fill="#9e9e9e"/>
  </g>
</svg>
