<svg xmlns="http://www.w3.org/2000/svg" xmlns:xlink="http://www.w3.org/1999/xlink" width="188.648" height="59.959" viewBox="0 0 188.648 59.959">
  <defs>
    <linearGradient id="linear-gradient" y1="0.5" x2="1" y2="0.5" gradientUnits="objectBoundingBox">
      <stop offset="0" stop-color="#a0f21b"/>
      <stop offset="0.5" stop-color="#00c685"/>
      <stop offset="1" stop-color="#068a91"/>
    </linearGradient>
    <linearGradient id="linear-gradient-2" x1="1.15" y1="0.332" x2="-0.137" y2="0.674" xlink:href="#linear-gradient"/>
  </defs>
  <g id="Group_4116" data-name="Group 4116" transform="translate(-198.998 -1157.629)">
    <g id="Group_4060" data-name="Group 4060" transform="translate(248.533 1173.708)">
      <path id="Path_10165" data-name="Path 10165" d="M486.852,1246.694q-1.342-.2-2.93-.324t-3.193-.124a16.113,16.113,0,0,0-2.853.231,5.08,5.08,0,0,0-2.252.987,5.8,5.8,0,0,0-1.65,2.3,17.028,17.028,0,0,0-1.08,4.2,15.835,15.835,0,0,0-.154,4.642,4.045,4.045,0,0,0,1.342,2.684,4.538,4.538,0,0,0,2.977.817,8.1,8.1,0,0,0,3.393-.833,8.464,8.464,0,0,0,2.684-2.113,9.109,9.109,0,0,0,.635-.847l.074.029a6.006,6.006,0,0,0-.663,1.7,13.05,13.05,0,0,1-.57,1.851,3.71,3.71,0,0,1-2.175,2.313,10.379,10.379,0,0,1-3.779.679q-1.142.03-1.912.031t-1.342-.016q-.571-.016-1.126-.015L472,1267.5a11.882,11.882,0,0,0,2.159.524,18.578,18.578,0,0,0,2.267.216q1.064.031,1.589.031a15.939,15.939,0,0,0,3.409-.4,7.194,7.194,0,0,0,2.745-1.281,6.956,6.956,0,0,0,1.959-2.437,12.055,12.055,0,0,0,1.08-3.809l1.882-13.232-.042,0Q488.186,1246.894,486.852,1246.694Zm-4.519,9.948a8.543,8.543,0,0,1-1.789,1.4,4.154,4.154,0,0,1-1.758.571,1.436,1.436,0,0,1-1.157-.308,1.982,1.982,0,0,1-.4-1.4,25.156,25.156,0,0,1,.771-5.213,3.49,3.49,0,0,1,.694-1.357,2.268,2.268,0,0,1,1.157-.663,7.758,7.758,0,0,1,1.866-.185q.926,0,1.959.015l.525.011-.866,6.027C483,1255.935,482.67,1256.3,482.333,1256.642Z" transform="translate(-472 -1246.247)" fill="#068a91"/>
      <path id="Path_10166" data-name="Path 10166" d="M581.358,1246.247h-.926a7.23,7.23,0,0,0-3.269.879,15.376,15.376,0,0,0-3.246,2.3l-.024-2.78h-3.547l-2.128,15.238h4.565l1.334-9.659q1.671-.837,2.815-1.276a6.551,6.551,0,0,1,2.329-.478h1.111Z" transform="translate(-550.76 -1246.247)" fill="#068a91"/>
      <path id="Path_10167" data-name="Path 10167" d="M648.194,1246.849a12.273,12.273,0,0,0-4.334-.6,15.924,15.924,0,0,0-3.547.355,6.429,6.429,0,0,0-2.606,1.2,6.058,6.058,0,0,0-1.728,2.36,13.774,13.774,0,0,0-.941,3.886,11.291,11.291,0,0,0,.247,4.519,4.537,4.537,0,0,0,2.236,2.761,9.944,9.944,0,0,0,4.735.925q1.048,0,2.252-.108a20.589,20.589,0,0,0,2.375-.355,10.964,10.964,0,0,0,2.1-.648l-.308-2.838q-.895.092-1.99.169t-2.144.123q-1.049.047-1.789.047a5.074,5.074,0,0,1-2.067-.339,1.775,1.775,0,0,1-.956-1.357,4.9,4.9,0,0,1-.087-.995l4.714-.393a14.666,14.666,0,0,0,3.208-.556,4.338,4.338,0,0,0,1.99-1.218,4.259,4.259,0,0,0,.941-2.236,5.14,5.14,0,0,0-.247-2.915A3.487,3.487,0,0,0,648.194,1246.849Zm-2.113,4.272a2.185,2.185,0,0,1-.4,1.1,1.7,1.7,0,0,1-.848.555,7.4,7.4,0,0,1-1.372.262l-3.538.35a16.35,16.35,0,0,1,.422-1.723,3.643,3.643,0,0,1,.71-1.357,2.256,2.256,0,0,1,1.08-.663,5.926,5.926,0,0,1,1.6-.185,6.9,6.9,0,0,1,1.48.077,1.07,1.07,0,0,1,.771.478A1.7,1.7,0,0,1,646.082,1251.12Z" transform="translate(-605.366 -1246.247)" fill="#068a91"/>
      <path id="Path_10168" data-name="Path 10168" d="M737.274,1246.849a12.276,12.276,0,0,0-4.334-.6,15.928,15.928,0,0,0-3.548.355,6.429,6.429,0,0,0-2.606,1.2,6.06,6.06,0,0,0-1.728,2.36,13.775,13.775,0,0,0-.94,3.886,11.292,11.292,0,0,0,.246,4.519,4.539,4.539,0,0,0,2.236,2.761,9.945,9.945,0,0,0,4.735.925q1.048,0,2.252-.108a20.6,20.6,0,0,0,2.375-.355,10.96,10.96,0,0,0,2.1-.648l-.308-2.838q-.895.092-1.99.169t-2.144.123q-1.049.047-1.789.047a5.075,5.075,0,0,1-2.067-.339,1.776,1.776,0,0,1-.956-1.357,4.937,4.937,0,0,1-.087-.995l4.714-.393a14.664,14.664,0,0,0,3.208-.556,4.337,4.337,0,0,0,1.99-1.218,4.256,4.256,0,0,0,.941-2.236,5.143,5.143,0,0,0-.247-2.915A3.487,3.487,0,0,0,737.274,1246.849Zm-2.113,4.272a2.184,2.184,0,0,1-.4,1.1,1.7,1.7,0,0,1-.848.555,7.408,7.408,0,0,1-1.372.262l-3.538.35a16.347,16.347,0,0,1,.422-1.723,3.643,3.643,0,0,1,.709-1.357,2.255,2.255,0,0,1,1.08-.663,5.925,5.925,0,0,1,1.6-.185,6.9,6.9,0,0,1,1.481.077,1.069,1.069,0,0,1,.771.478A1.7,1.7,0,0,1,735.161,1251.12Z" transform="translate(-678.282 -1246.247)" fill="#068a91"/>
      <path id="Path_10169" data-name="Path 10169" d="M827.37,1248.159a2.926,2.926,0,0,0-1.357-1.434,4.717,4.717,0,0,0-2.19-.478,7.926,7.926,0,0,0-3.84,1.08,14.767,14.767,0,0,0-3.131,2.366v-3.045h-3.578l-2.128,15.238h4.565l1.326-9.468a18.3,18.3,0,0,1,2.422-1.668,4.79,4.79,0,0,1,2.144-.647q.863-.031,1.126.385a2.308,2.308,0,0,1,.108,1.465l-1.419,9.932h4.6l1.6-11.32A4.457,4.457,0,0,0,827.37,1248.159Z" transform="translate(-749.609 -1246.247)" fill="#068a91"/>
      <path id="Path_10170" data-name="Path 10170" d="M911.964,1263.34a1.231,1.231,0,0,0,.91.355h2.468a9.175,9.175,0,0,0,2.005-.2,3.353,3.353,0,0,0,1.6-.879,5.274,5.274,0,0,0,1.2-2.1q.246-.524.494-1.187t.478-1.419q.231-.755.416-1.5.247-.956.463-1.928t.355-1.82q.139-.847.2-1.4h.37l.679,11.2a1.292,1.292,0,0,0,1.326,1.234H927a7.163,7.163,0,0,0,2.252-.293,3.479,3.479,0,0,0,1.434-.895,6.281,6.281,0,0,0,1.033-1.527q.463-.894,1.018-2.206t1.049-2.76q.432-1.2.771-2.437t.617-2.53q.277-1.3.524-2.591h-4.6q-.247,1.882-.555,3.47t-.74,3.1q-.339,1.234-.663,2.113t-.725,1.835a9.292,9.292,0,0,1-.493,1.188.793.793,0,0,1-.74.478h-.278l-.8-11.043a1.219,1.219,0,0,0-.37-.8,1.171,1.171,0,0,0-.864-.339H920.8a1.223,1.223,0,0,0-.972.37,1.525,1.525,0,0,0-.386.771q-.216,1.326-.385,2.36t-.355,1.9q-.185.865-.432,1.728-.247,1.08-.54,1.974t-.571,1.542a4,4,0,0,1-.617,1.188.95.95,0,0,1-.74.355H915.5l-.926-12.184h-4.658l1.635,14A1.44,1.44,0,0,0,911.964,1263.34Z" transform="translate(-830.456 -1248.056)" fill="#068a91"/>
      <path id="Path_10171" data-name="Path 10171" d="M1064.643,1246.524q-1.034-.123-2.036-.2t-1.8-.077a21.179,21.179,0,0,0-3.285.231,6.245,6.245,0,0,0-2.576.987,5.523,5.523,0,0,0-1.835,2.314,15.757,15.757,0,0,0-1.126,4.179,17.29,17.29,0,0,0-.185,4.719,4.177,4.177,0,0,0,1.311,2.776,4.326,4.326,0,0,0,3.069.8,8.031,8.031,0,0,0,6-3.008c.121-.147.236-.3.348-.456l-.055,3.093h3.547l2.067-14.775q-.586-.155-1.5-.309T1064.643,1246.524Zm-3.255,10.1a8.534,8.534,0,0,1-1.8,1.434,3.778,3.778,0,0,1-1.743.555,1.516,1.516,0,0,1-1.172-.34,1.9,1.9,0,0,1-.355-1.373,24.573,24.573,0,0,1,.293-2.915,13.521,13.521,0,0,1,.524-2.406,3.364,3.364,0,0,1,.771-1.342,2.372,2.372,0,0,1,1.172-.6,8.3,8.3,0,0,1,1.727-.154q.894,0,1.912.015l.481.01-.868,6.073C1062.021,1255.953,1061.708,1256.3,1061.389,1256.627Z" transform="translate(-946.521 -1246.247)" fill="#068a91"/>
      <path id="Path_10172" data-name="Path 10172" d="M1158.843,1248.457q-.432,2.591-.972,4.688a36.629,36.629,0,0,1-1.234,3.918,37.553,37.553,0,0,1-1.62,3.64h-1.11a.568.568,0,0,1-.617-.525l-1.3-11.721h-4.935l2.406,13.727a1.856,1.856,0,0,0,.617,1.08,1.762,1.762,0,0,0,1.2.432h1.932a9.1,9.1,0,0,1-1.823,1.82,9.5,9.5,0,0,1-1.959,1.1q-1.018.416-2.159.755l.463,2.684a12.531,12.531,0,0,0,4.2-.925,11.182,11.182,0,0,0,3.578-2.468,21.028,21.028,0,0,0,3.208-4.318q.556-.925,1.126-2.128t1.141-2.606q.571-1.4,1.095-2.946t.941-3.115q.417-1.573.663-3.085Z" transform="translate(-1024.574 -1248.056)" fill="#068a91"/>
      <path id="Path_10173" data-name="Path 10173" d="M911.879,1362.121h-4.77v1.814h1.375v4.862l-3.934-6.677h-4.487v1.814H901.5v7.052h-1.439v1.814h4.678v-1.814H903.4v-6.039l4.621,7.924h2.367v-8.938h1.488Z" transform="translate(-822.394 -1341.096)" fill="#068a91"/>
      <path id="Path_10174" data-name="Path 10174" d="M971.812,1381.076a3.55,3.55,0,0,0-1.343-1.538,3.8,3.8,0,0,0-2.048-.542,4.026,4.026,0,0,0-2.009.521,3.889,3.889,0,0,0-1.467,1.442,3.978,3.978,0,0,0-.542,2.056,3.752,3.752,0,0,0,.521,2,3.465,3.465,0,0,0,1.467,1.315,4.887,4.887,0,0,0,2.179.464,4.655,4.655,0,0,0,2.134-.457,3.964,3.964,0,0,0,1.51-1.372l-1.843-.6a2.423,2.423,0,0,1-1.729.879,1.784,1.784,0,0,1-1.308-.5,2.132,2.132,0,0,1-.592-1.357H972.3A5.493,5.493,0,0,0,971.812,1381.076Zm-5.014,1a1.837,1.837,0,0,1,.485-1.127,1.422,1.422,0,0,1,1.024-.368,1.489,1.489,0,0,1,1.053.415,1.8,1.8,0,0,1,.542,1.081Z" transform="translate(-875.058 -1354.909)" fill="#068a91"/>
      <path id="Path_10175" data-name="Path 10175" d="M1015.691,1379.9a2.858,2.858,0,0,0-1.7-.514,3,3,0,0,0-2.2,1.028v-.928h-3.43v1.743h1.063v7.343h-1.261v1.716h5.1v-1.716h-1.474v-2.389a3.14,3.14,0,0,0,2.176.929,2.946,2.946,0,0,0,1.691-.5,3.175,3.175,0,0,0,1.124-1.364,4.745,4.745,0,0,0,.389-1.96,5.064,5.064,0,0,0-.375-1.992A3.226,3.226,0,0,0,1015.691,1379.9Zm-1.343,4.813a1.249,1.249,0,0,1-1.077.521,1.312,1.312,0,0,1-1.1-.564,2.635,2.635,0,0,1-.014-2.839,1.3,1.3,0,0,1,1.088-.532,1.29,1.29,0,0,1,1.1.511,2.33,2.33,0,0,1,.383,1.425A2.5,2.5,0,0,1,1014.348,1384.713Z" transform="translate(-910.87 -1355.229)" fill="#068a91"/>
      <path id="Path_10176" data-name="Path 10176" d="M1069,1382.143a3.168,3.168,0,0,0-.8-2.378,3.775,3.775,0,0,0-2.668-.769q-2.729,0-3.6,1.758l1.914.347a1.881,1.881,0,0,1,1.368-.6,1.482,1.482,0,0,1,1.063.34,1.2,1.2,0,0,1,.354.907v.6a4.778,4.778,0,0,0-.861-.351,3.2,3.2,0,0,0-.847-.1,3.33,3.33,0,0,0-2.193.684,2.241,2.241,0,0,0-.826,1.818,2.123,2.123,0,0,0,.737,1.7,2.917,2.917,0,0,0,1.963.631,3.565,3.565,0,0,0,2.027-.694v.581h3.572V1384.9H1069Zm-2.368,2.339a2.438,2.438,0,0,1-1.5.766q-.957,0-.957-1a.875.875,0,0,1,.269-.688,1.133,1.133,0,0,1,.779-.241,2.637,2.637,0,0,1,1.4.5Z" transform="translate(-954.869 -1354.909)" fill="#068a91"/>
      <path id="Path_10177" data-name="Path 10177" d="M1113.028,1362.121h-3.544v1.708h1.162v7.258h-1.162v1.715h4.6v-1.715h-1.056Z" transform="translate(-993.815 -1341.096)" fill="#068a91"/>
    </g>
    <g id="Group_4061" data-name="Group 4061" transform="translate(198.998 1157.629)">
      <path id="Path_10178" data-name="Path 10178" d="M212.253,1183.038c.732-2.8,1.5-5.86,2.355-9.359a1.726,1.726,0,0,0-1.215-2.314c-1.865-.483-2.272,1.662-2.594,3.1-.421,1.451-.679,3.028-1.2,4.435a2.118,2.118,0,0,1-.182-.292,11.752,11.752,0,1,1,21.765-8.021c.094.35.188.725.274,1.106a34.059,34.059,0,0,1,3.339-1.528c-3.062-14.766-22.852-17.231-29.174-3.393a15.2,15.2,0,0,0,.268,12.753c.234.35.083.385-.26.26-1.434-.385-2.882-.719-4.327-1.063a1.751,1.751,0,1,0-.844,3.389c3.629.944,6.6,1.7,9.358,2.368A1.792,1.792,0,0,0,212.253,1183.038Z" transform="translate(-198.998 -1157.629)" fill="url(#linear-gradient)"/>
      <path id="Path_10179" data-name="Path 10179" d="M266.1,1222.3c-.684-2.059-2.972-.946-4.462-.5-6.653,2.326-15.139,8.658-19.195,13.594a48.262,48.262,0,0,0-11.065,23.95,39.694,39.694,0,0,0-.609,7.125,3.1,3.1,0,0,0,1.226,2.538c1.867,1.37,4.476-.251,6.266-.758,17.284-6.305,26.862-19.854,24.033-38.686a1.759,1.759,0,0,0-3.5-.2,50.423,50.423,0,0,1-4.369,10.119,40.5,40.5,0,0,1-9.52,11.8c-.787.653-1.63,1.223-2.436,1.845a.979.979,0,0,0-.353,1.382,1.03,1.03,0,0,0,1.464.336,27.885,27.885,0,0,0,4.222-3.328,50.024,50.024,0,0,0,11.443-17.274c.791,15.669-9.09,26.582-24.263,31.381-.341.115-.445.081-.473.06s-.091-.108-.084-.474a44.48,44.48,0,0,1,15.615-32.336c3.6-3.054,8.513-6.762,14.68-8.348A1.718,1.718,0,0,0,266.1,1222.3Z" transform="translate(-224.999 -1209.582)" fill="url(#linear-gradient-2)"/>
    </g>
  </g>
</svg>
